<svg width="797" height="613" viewBox="0 0 797 613" fill="none" xmlns="http://www.w3.org/2000/svg">
<path d="M20.554 26.4862H444.038C448.66 26.4862 452.407 30.232 452.407 34.8526V339.873C452.407 344.494 448.66 348.24 444.038 348.24H20.554C15.9321 348.24 12.1852 344.494 12.1852 339.873V34.8526C12.1852 30.232 15.9321 26.4862 20.554 26.4862Z" fill="white"/>
<path d="M20.0003 349.746H444.592C447.061 349.742 449.429 348.76 451.175 347.014C452.921 345.269 453.904 342.902 453.907 340.433V34.2991C453.904 31.8303 452.921 29.4637 451.175 27.718C449.429 25.9723 447.061 24.9901 444.592 24.9866H19.9938C17.5244 24.9901 15.157 25.9723 13.4109 27.718C11.6647 29.4637 10.6822 31.8303 10.6788 34.2991V340.433C10.6822 342.903 11.6656 345.271 13.4131 347.017C15.1607 348.762 17.5297 349.744 20.0003 349.746V349.746ZM444.592 27.9921C446.265 27.9938 447.868 28.6589 449.051 29.8413C450.234 31.0237 450.899 32.6269 450.901 34.2991V340.433C450.899 342.105 450.234 343.709 449.051 344.891C447.868 346.073 446.265 346.738 444.592 346.74H19.9938C18.3212 346.738 16.7176 346.073 15.5348 344.891C14.352 343.709 13.6868 342.105 13.6851 340.433V34.2991C13.6868 32.6269 14.352 31.0237 15.5348 29.8413C16.7176 28.6589 18.3212 27.9938 19.9938 27.9921H444.592Z" fill="#09132D"/>
<path d="M226.715 86.3512H407.242C410.797 86.3512 413.679 89.2326 413.679 92.7869V215.374C413.679 218.929 410.797 221.81 407.242 221.81H226.715C223.16 221.81 220.277 218.929 220.277 215.374V92.7869C220.277 89.2326 223.16 86.3512 226.715 86.3512Z" fill="#60FFB0"/>
<path d="M231.878 96.983H402.079V211.178H231.878V96.983Z" fill="white"/>
<path d="M231.884 195.321V211.178H402.079V175.138L371.108 144.183C369.992 143.065 368.666 142.179 367.207 141.574C365.748 140.969 364.184 140.658 362.604 140.658C361.024 140.658 359.46 140.969 358.001 141.574C356.542 142.179 355.216 143.065 354.1 144.183L308.658 189.612L281.62 162.582C280.504 161.465 279.178 160.578 277.719 159.974C276.26 159.369 274.696 159.058 273.116 159.058C271.537 159.058 269.973 159.369 268.514 159.974C267.054 160.578 265.729 161.465 264.612 162.582L231.884 195.321Z" fill="#8ED6F2"/>
<path d="M305.497 154.338C298.276 154.338 292.422 148.486 292.422 141.267C292.422 134.048 298.276 128.196 305.497 128.196C312.718 128.196 318.572 134.048 318.572 141.267C318.572 148.486 312.718 154.338 305.497 154.338Z" fill="#8ED6F2"/>
<path d="M57.3506 86.3512H191C194.555 86.3512 197.437 89.2326 197.437 92.7869V215.374C197.437 218.929 194.555 221.81 191 221.81H57.3506C53.7953 221.81 50.9131 218.929 50.9131 215.374V92.7869C50.9131 89.2326 53.7953 86.3512 57.3506 86.3512Z" fill="#60FFB0"/>
<path d="M80.6544 115.949H167.696C170.362 115.949 172.524 118.11 172.524 120.776V122.938C172.524 125.604 170.362 127.765 167.696 127.765H80.6544C77.9879 127.765 75.8263 125.604 75.8263 122.938V120.776C75.8263 118.11 77.9879 115.949 80.6544 115.949Z" fill="white"/>
<path d="M80.6544 148.173H167.696C170.362 148.173 172.524 150.334 172.524 152.999V155.162C172.524 157.828 170.362 159.989 167.696 159.989H80.6544C77.9879 159.989 75.8263 157.828 75.8263 155.162V152.999C75.8263 150.334 77.9879 148.173 80.6544 148.173Z" fill="white"/>
<path d="M80.6544 180.396H167.696C170.362 180.396 172.524 182.557 172.524 185.223V187.385C172.524 190.051 170.362 192.212 167.696 192.212H80.6544C77.9879 192.212 75.8263 190.051 75.8263 187.385V185.223C75.8263 182.557 77.9879 180.396 80.6544 180.396Z" fill="white"/>
<path d="M64.2904 266.442H302.253C307.319 266.442 311.426 270.546 311.426 275.609C311.426 280.673 307.319 284.777 302.253 284.777H64.2904C59.224 284.777 55.1169 280.673 55.1169 275.609C55.1169 270.546 59.224 266.442 64.2904 266.442Z" fill="#60FFB0"/>
<path d="M64.2904 296.999H302.253C307.319 296.999 311.426 301.103 311.426 306.166C311.426 311.229 307.319 315.334 302.253 315.334H64.2904C59.224 315.334 55.1169 311.229 55.1169 306.166C55.1169 301.103 59.224 296.999 64.2904 296.999Z" fill="#60FFB0"/>
<path d="M332.953 258.886H388.122C390.565 258.886 392.545 260.866 392.545 263.308V318.462C392.545 320.904 390.565 322.883 388.122 322.883H332.953C330.51 322.883 328.53 320.904 328.53 318.462V263.308C328.53 260.866 330.51 258.886 332.953 258.886Z" fill="#8ED6F2"/>
<path d="M334.672 317.741C334.869 317.741 335.064 317.703 335.246 317.628C335.429 317.553 335.594 317.442 335.734 317.303L388.476 264.575C388.758 264.294 388.916 263.912 388.916 263.514C388.916 263.115 388.758 262.733 388.476 262.452C388.195 262.17 387.813 262.012 387.414 262.012C387.016 262.012 386.634 262.17 386.352 262.452L333.609 315.18C333.399 315.389 333.256 315.657 333.198 315.948C333.139 316.239 333.169 316.541 333.283 316.816C333.397 317.09 333.589 317.324 333.837 317.489C334.084 317.654 334.375 317.742 334.672 317.741Z" fill="white"/>
<path d="M387.408 317.741C387.708 317.744 388.001 317.658 388.251 317.492C388.502 317.327 388.696 317.09 388.811 316.813C388.925 316.536 388.954 316.231 388.893 315.938C388.832 315.644 388.685 315.376 388.47 315.167L335.727 262.439C335.588 262.299 335.422 262.189 335.24 262.113C335.058 262.038 334.863 261.999 334.665 261.999C334.468 261.999 334.273 262.038 334.09 262.113C333.908 262.189 333.743 262.299 333.603 262.439C333.464 262.578 333.353 262.744 333.277 262.926C333.202 263.108 333.163 263.303 333.163 263.501C333.163 263.698 333.202 263.893 333.277 264.075C333.353 264.258 333.464 264.423 333.603 264.563L386.346 317.29C386.484 317.432 386.649 317.545 386.832 317.622C387.014 317.699 387.21 317.74 387.408 317.741V317.741Z" fill="white"/>
<path d="M11.2517 2.24286H453.341C458.201 2.24286 462.141 6.18169 462.141 11.0405V43.5795C462.141 48.4383 458.201 52.3771 453.341 52.3771H11.2517C6.3916 52.3771 2.45166 48.4383 2.45166 43.5795V11.0405C2.45166 6.18169 6.3916 2.24286 11.2517 2.24286Z" fill="white"/>
<path d="M10.666 53.8766H453.926C456.502 53.8732 458.971 52.8489 460.792 51.0284C462.613 49.2079 463.637 46.7397 463.641 44.1651V10.4548C463.637 7.88022 462.613 5.41204 460.792 3.59152C458.971 1.771 456.502 0.746737 453.926 0.743332H10.666C8.09064 0.746737 5.62176 1.771 3.80073 3.59152C1.9797 5.41204 0.955197 7.88022 0.951791 10.4548V44.1651C0.955197 46.7397 1.9797 49.2079 3.80073 51.0284C5.62176 52.8489 8.09064 53.8732 10.666 53.8766ZM453.926 3.74238C455.707 3.74408 457.414 4.45183 458.672 5.71029C459.931 6.96875 460.639 8.67509 460.641 10.4548V44.1651C460.639 45.9448 459.931 47.6512 458.672 48.9096C457.414 50.1681 455.707 50.8758 453.926 50.8775H10.666C8.88685 50.8741 7.18169 50.1656 5.92427 48.9074C4.66685 47.6491 3.95983 45.9437 3.95813 44.1651V10.4548C3.95983 8.67621 4.66685 6.97083 5.92427 5.71256C7.18169 4.45428 8.88685 3.74578 10.666 3.74238H453.926V3.74238Z" fill="#09132D"/>
<path d="M441.29 37.9933C435.388 37.9933 430.603 33.2102 430.603 27.31C430.603 21.4097 435.388 16.6267 441.29 16.6267C447.191 16.6267 451.976 21.4097 451.976 27.31C451.976 33.2102 447.191 37.9933 441.29 37.9933Z" fill="#8ED6F2"/>
<path d="M393.523 37.9933C387.622 37.9933 382.837 33.2102 382.837 27.31C382.837 21.4097 387.622 16.6267 393.523 16.6267C399.425 16.6267 404.21 21.4097 404.21 27.31C404.21 33.2102 399.425 37.9933 393.523 37.9933Z" fill="#8ED6F2"/>
<path d="M345.764 37.9933C339.862 37.9933 335.077 33.2102 335.077 27.31C335.077 21.4097 339.862 16.6267 345.764 16.6267C351.665 16.6267 356.45 21.4097 356.45 27.31C356.45 33.2102 351.665 37.9933 345.764 37.9933Z" fill="#60FFB0"/>
<path d="M219.164 577.924H226.889C227.316 577.924 227.725 577.754 228.027 577.453C228.329 577.151 228.498 576.742 228.498 576.315C228.498 575.888 228.329 575.479 228.027 575.177C227.725 574.876 227.316 574.706 226.889 574.706H219.164C218.737 574.706 218.328 574.876 218.026 575.177C217.724 575.479 217.554 575.888 217.554 576.315C217.554 576.742 217.724 577.151 218.026 577.453C218.328 577.754 218.737 577.924 219.164 577.924ZM234.614 577.924H242.339C242.766 577.924 243.175 577.754 243.477 577.453C243.779 577.151 243.948 576.742 243.948 576.315C243.948 575.888 243.779 575.479 243.477 575.177C243.175 574.876 242.766 574.706 242.339 574.706H234.614C234.187 574.706 233.778 574.876 233.476 575.177C233.174 575.479 233.004 575.888 233.004 576.315C233.004 576.742 233.174 577.151 233.476 577.453C233.778 577.754 234.187 577.924 234.614 577.924ZM250.064 577.924H257.789C258.216 577.924 258.625 577.754 258.927 577.453C259.228 577.151 259.398 576.742 259.398 576.315C259.398 575.888 259.228 575.479 258.927 575.177C258.625 574.876 258.216 574.706 257.789 574.706H250.064C249.637 574.706 249.228 574.876 248.926 575.177C248.624 575.479 248.454 575.888 248.454 576.315C248.454 576.742 248.624 577.151 248.926 577.453C249.228 577.754 249.637 577.924 250.064 577.924V577.924ZM265.514 577.924H273.239C273.666 577.924 274.075 577.754 274.377 577.453C274.678 577.151 274.848 576.742 274.848 576.315C274.848 575.888 274.678 575.479 274.377 575.177C274.075 574.876 273.666 574.706 273.239 574.706H265.514C265.087 574.706 264.677 574.876 264.376 575.177C264.074 575.479 263.904 575.888 263.904 576.315C263.904 576.742 264.074 577.151 264.376 577.453C264.677 577.754 265.087 577.924 265.514 577.924ZM280.964 577.924H288.689C289.115 577.924 289.525 577.754 289.827 577.453C290.128 577.151 290.298 576.742 290.298 576.315C290.298 575.888 290.128 575.479 289.827 575.177C289.525 574.876 289.115 574.706 288.689 574.706H280.964C280.537 574.706 280.127 574.876 279.826 575.177C279.524 575.479 279.354 575.888 279.354 576.315C279.354 576.742 279.524 577.151 279.826 577.453C280.127 577.754 280.537 577.924 280.964 577.924V577.924ZM296.414 577.924H304.139C304.565 577.924 304.975 577.754 305.277 577.453C305.578 577.151 305.748 576.742 305.748 576.315C305.748 575.888 305.578 575.479 305.277 575.177C304.975 574.876 304.565 574.706 304.139 574.706H296.414C295.987 574.706 295.577 574.876 295.276 575.177C294.974 575.479 294.804 575.888 294.804 576.315C294.804 576.742 294.974 577.151 295.276 577.453C295.577 577.754 295.987 577.924 296.414 577.924ZM311.864 577.924H319.589C320.015 577.924 320.425 577.754 320.727 577.453C321.028 577.151 321.198 576.742 321.198 576.315C321.198 575.888 321.028 575.479 320.727 575.177C320.425 574.876 320.015 574.706 319.589 574.706H311.864C311.437 574.706 311.027 574.876 310.726 575.177C310.424 575.479 310.254 575.888 310.254 576.315C310.254 576.742 310.424 577.151 310.726 577.453C311.027 577.754 311.437 577.924 311.864 577.924ZM327.314 577.924H335.039C335.465 577.924 335.875 577.754 336.177 577.453C336.478 577.151 336.648 576.742 336.648 576.315C336.648 575.888 336.478 575.479 336.177 575.177C335.875 574.876 335.465 574.706 335.039 574.706H327.314C326.887 574.706 326.477 574.876 326.176 575.177C325.874 575.479 325.704 575.888 325.704 576.315C325.704 576.742 325.874 577.151 326.176 577.453C326.477 577.754 326.887 577.924 327.314 577.924V577.924ZM342.764 577.924H350.489C350.915 577.924 351.325 577.754 351.627 577.453C351.928 577.151 352.098 576.742 352.098 576.315C352.098 575.888 351.928 575.479 351.627 575.177C351.325 574.876 350.915 574.706 350.489 574.706H342.764C342.337 574.706 341.927 574.876 341.626 575.177C341.324 575.479 341.154 575.888 341.154 576.315C341.154 576.742 341.324 577.151 341.626 577.453C341.927 577.754 342.337 577.924 342.764 577.924ZM358.214 577.924H365.939C366.365 577.924 366.775 577.754 367.077 577.453C367.378 577.151 367.548 576.742 367.548 576.315C367.548 575.888 367.378 575.479 367.077 575.177C366.775 574.876 366.365 574.706 365.939 574.706H358.214C357.787 574.706 357.377 574.876 357.076 575.177C356.774 575.479 356.604 575.888 356.604 576.315C356.604 576.742 356.774 577.151 357.076 577.453C357.377 577.754 357.787 577.924 358.214 577.924V577.924ZM373.664 577.924H374.604C375.03 577.924 375.44 577.754 375.742 577.453C376.043 577.151 376.213 576.742 376.213 576.315V568.592C376.213 568.165 376.043 567.756 375.742 567.454C375.44 567.153 375.03 566.983 374.604 566.983C374.177 566.983 373.767 567.153 373.466 567.454C373.164 567.756 372.994 568.165 372.994 568.592V574.854C372.661 575.008 372.391 575.27 372.228 575.598C372.064 575.926 372.018 576.3 372.096 576.658C372.174 577.016 372.372 577.336 372.657 577.567C372.942 577.797 373.297 577.923 373.664 577.924ZM211.651 577.712C212.078 577.712 212.487 577.542 212.789 577.24C213.091 576.939 213.261 576.529 213.261 576.103V568.38C213.261 567.953 213.091 567.544 212.789 567.242C212.487 566.94 212.078 566.771 211.651 566.771C211.224 566.771 210.815 566.94 210.513 567.242C210.211 567.544 210.042 567.953 210.042 568.38V576.103C210.042 576.529 210.211 576.939 210.513 577.24C210.815 577.542 211.224 577.712 211.651 577.712ZM374.604 562.478C375.03 562.478 375.44 562.309 375.742 562.007C376.043 561.705 376.213 561.296 376.213 560.869V553.146C376.213 552.72 376.043 552.31 375.742 552.009C375.44 551.707 375.03 551.537 374.604 551.537C374.177 551.537 373.767 551.707 373.466 552.009C373.164 552.31 372.994 552.72 372.994 553.146V560.869C372.994 561.296 373.164 561.705 373.466 562.007C373.767 562.309 374.177 562.478 374.604 562.478V562.478ZM211.651 562.266C212.078 562.266 212.487 562.096 212.789 561.795C213.091 561.493 213.261 561.084 213.261 560.657V552.934C213.261 552.507 213.091 552.098 212.789 551.796C212.487 551.495 212.078 551.325 211.651 551.325C211.224 551.325 210.815 551.495 210.513 551.796C210.211 552.098 210.042 552.507 210.042 552.934V560.657C210.042 561.084 210.211 561.493 210.513 561.795C210.815 562.096 211.224 562.266 211.651 562.266ZM374.604 547.032C375.03 547.032 375.44 546.863 375.742 546.561C376.043 546.26 376.213 545.85 376.213 545.424V537.701C376.213 537.274 376.043 536.865 375.742 536.563C375.44 536.261 375.03 536.092 374.604 536.092C374.177 536.092 373.767 536.261 373.466 536.563C373.164 536.865 372.994 537.274 372.994 537.701V545.424C372.994 545.85 373.164 546.26 373.466 546.561C373.767 546.863 374.177 547.032 374.604 547.032V547.032ZM211.651 546.82C212.078 546.82 212.487 546.651 212.789 546.349C213.091 546.047 213.261 545.638 213.261 545.211V537.488C213.261 537.062 213.091 536.652 212.789 536.351C212.487 536.049 212.078 535.879 211.651 535.879C211.224 535.879 210.815 536.049 210.513 536.351C210.211 536.652 210.042 537.062 210.042 537.488V545.211C210.042 545.638 210.211 546.047 210.513 546.349C210.815 546.651 211.224 546.82 211.651 546.82ZM374.604 531.587C375.03 531.587 375.44 531.417 375.742 531.116C376.043 530.814 376.213 530.405 376.213 529.978V522.255C376.213 521.828 376.043 521.419 375.742 521.117C375.44 520.816 375.03 520.646 374.604 520.646C374.177 520.646 373.767 520.816 373.466 521.117C373.164 521.419 372.994 521.828 372.994 522.255V529.978C372.994 530.405 373.164 530.814 373.466 531.116C373.767 531.417 374.177 531.587 374.604 531.587V531.587ZM211.651 531.374C212.078 531.374 212.487 531.205 212.789 530.903C213.091 530.601 213.261 530.192 213.261 529.765V522.043C213.261 521.616 213.091 521.207 212.789 520.905C212.487 520.603 212.078 520.434 211.651 520.434C211.224 520.434 210.815 520.603 210.513 520.905C210.211 521.207 210.042 521.616 210.042 522.043V529.765C210.042 530.192 210.211 530.601 210.513 530.903C210.815 531.205 211.224 531.374 211.651 531.374ZM374.604 516.141C375.03 516.141 375.44 515.972 375.742 515.67C376.043 515.368 376.213 514.959 376.213 514.532V506.809C376.213 506.383 376.043 505.973 375.742 505.672C375.44 505.37 375.03 505.2 374.604 505.2C374.177 505.2 373.767 505.37 373.466 505.672C373.164 505.973 372.994 506.383 372.994 506.809V514.532C372.994 514.959 373.164 515.368 373.466 515.67C373.767 515.972 374.177 516.141 374.604 516.141V516.141ZM211.651 515.929C212.078 515.929 212.487 515.759 212.789 515.457C213.091 515.156 213.261 514.746 213.261 514.32V506.597C213.261 506.17 213.091 505.761 212.789 505.459C212.487 505.157 212.078 504.988 211.651 504.988C211.224 504.988 210.815 505.157 210.513 505.459C210.211 505.761 210.042 506.17 210.042 506.597V514.32C210.042 514.746 210.211 515.156 210.513 515.457C210.815 515.759 211.224 515.929 211.651 515.929ZM374.604 500.695C375.03 500.695 375.44 500.526 375.742 500.224C376.043 499.922 376.213 499.513 376.213 499.086V491.364C376.213 490.937 376.043 490.528 375.742 490.226C375.44 489.924 375.03 489.755 374.604 489.755C374.177 489.755 373.767 489.924 373.466 490.226C373.164 490.528 372.994 490.937 372.994 491.364V499.086C372.994 499.513 373.164 499.922 373.466 500.224C373.767 500.526 374.177 500.695 374.604 500.695V500.695ZM211.651 500.483C212.078 500.483 212.487 500.313 212.789 500.012C213.091 499.71 213.261 499.301 213.261 498.874V491.151C213.261 490.724 213.091 490.315 212.789 490.013C212.487 489.712 212.078 489.542 211.651 489.542C211.224 489.542 210.815 489.712 210.513 490.013C210.211 490.315 210.042 490.724 210.042 491.151V498.874C210.042 499.301 210.211 499.71 210.513 500.012C210.815 500.313 211.224 500.483 211.651 500.483V500.483ZM374.604 485.25C375.03 485.25 375.44 485.08 375.742 484.778C376.043 484.477 376.213 484.067 376.213 483.641V475.918C376.213 475.491 376.043 475.082 375.742 474.78C375.44 474.478 375.03 474.309 374.604 474.309C374.177 474.309 373.767 474.478 373.466 474.78C373.164 475.082 372.994 475.491 372.994 475.918V483.641C372.994 484.067 373.164 484.477 373.466 484.778C373.767 485.08 374.177 485.25 374.604 485.25V485.25ZM211.651 485.037C212.078 485.037 212.487 484.868 212.789 484.566C213.091 484.264 213.261 483.855 213.261 483.428V475.705C213.261 475.279 213.091 474.869 212.789 474.568C212.487 474.266 212.078 474.097 211.651 474.097C211.224 474.097 210.815 474.266 210.513 474.568C210.211 474.869 210.042 475.279 210.042 475.705V483.428C210.042 483.855 210.211 484.264 210.513 484.566C210.815 484.868 211.224 485.037 211.651 485.037V485.037ZM374.604 469.804C375.03 469.804 375.44 469.634 375.742 469.333C376.043 469.031 376.213 468.622 376.213 468.195V460.472C376.213 460.045 376.043 459.636 375.742 459.334C375.44 459.033 375.03 458.863 374.604 458.863C374.177 458.863 373.767 459.033 373.466 459.334C373.164 459.636 372.994 460.045 372.994 460.472V468.195C372.994 468.622 373.164 469.031 373.466 469.333C373.767 469.634 374.177 469.804 374.604 469.804V469.804ZM211.651 469.592C212.078 469.592 212.487 469.422 212.789 469.12C213.091 468.819 213.261 468.409 213.261 467.983V460.26C213.261 459.833 213.091 459.424 212.789 459.122C212.487 458.82 212.078 458.651 211.651 458.651C211.224 458.651 210.815 458.82 210.513 459.122C210.211 459.424 210.042 459.833 210.042 460.26V467.983C210.042 468.409 210.211 468.819 210.513 469.12C210.815 469.422 211.224 469.592 211.651 469.592ZM374.604 454.358C375.03 454.358 375.44 454.189 375.742 453.887C376.043 453.585 376.213 453.176 376.213 452.749V445.026C376.213 444.6 376.043 444.19 375.742 443.889C375.44 443.587 375.03 443.417 374.604 443.417C374.177 443.417 373.767 443.587 373.466 443.889C373.164 444.19 372.994 444.6 372.994 445.026V452.749C372.994 453.176 373.164 453.585 373.466 453.887C373.767 454.189 374.177 454.358 374.604 454.358V454.358ZM211.651 454.146C212.078 454.146 212.487 453.976 212.789 453.675C213.091 453.373 213.261 452.964 213.261 452.537V444.814C213.261 444.387 213.091 443.978 212.789 443.676C212.487 443.375 212.078 443.205 211.651 443.205C211.224 443.205 210.815 443.375 210.513 443.676C210.211 443.978 210.042 444.387 210.042 444.814V452.537C210.042 452.964 210.211 453.373 210.513 453.675C210.815 453.976 211.224 454.146 211.651 454.146V454.146ZM374.604 438.912C375.03 438.912 375.44 438.743 375.742 438.441C376.043 438.139 376.213 437.73 376.213 437.304V429.581C376.213 429.154 376.043 428.745 375.742 428.443C375.44 428.141 375.03 427.972 374.604 427.972C374.177 427.972 373.767 428.141 373.466 428.443C373.164 428.745 372.994 429.154 372.994 429.581V437.304C372.994 437.73 373.164 438.139 373.466 438.441C373.767 438.743 374.177 438.912 374.604 438.912V438.912ZM211.651 438.7C212.078 438.7 212.487 438.531 212.789 438.229C213.091 437.927 213.261 437.518 213.261 437.091V429.368C213.261 428.942 213.091 428.532 212.789 428.231C212.487 427.929 212.078 427.759 211.651 427.759C211.224 427.759 210.815 427.929 210.513 428.231C210.211 428.532 210.042 428.942 210.042 429.368V437.091C210.042 437.518 210.211 437.927 210.513 438.229C210.815 438.531 211.224 438.7 211.651 438.7ZM212.121 423.724H219.846C220.273 423.724 220.682 423.555 220.984 423.253C221.286 422.951 221.455 422.542 221.455 422.115C221.455 421.689 221.286 421.279 220.984 420.978C220.682 420.676 220.273 420.506 219.846 420.506H212.121C211.694 420.506 211.285 420.676 210.983 420.978C210.681 421.279 210.512 421.689 210.512 422.115C210.512 422.542 210.681 422.951 210.983 423.253C211.285 423.555 211.694 423.724 212.121 423.724ZM227.571 423.724H235.296C235.723 423.724 236.132 423.555 236.434 423.253C236.736 422.951 236.905 422.542 236.905 422.115C236.905 421.689 236.736 421.279 236.434 420.978C236.132 420.676 235.723 420.506 235.296 420.506H227.571C227.144 420.506 226.735 420.676 226.433 420.978C226.131 421.279 225.962 421.689 225.962 422.115C225.962 422.542 226.131 422.951 226.433 423.253C226.735 423.555 227.144 423.724 227.571 423.724ZM243.021 423.724H250.746C251.173 423.724 251.582 423.555 251.884 423.253C252.186 422.951 252.355 422.542 252.355 422.115C252.355 421.689 252.186 421.279 251.884 420.978C251.582 420.676 251.173 420.506 250.746 420.506H243.021C242.594 420.506 242.185 420.676 241.883 420.978C241.581 421.279 241.412 421.689 241.412 422.115C241.412 422.542 241.581 422.951 241.883 423.253C242.185 423.555 242.594 423.724 243.021 423.724ZM258.471 423.724H266.196C266.623 423.724 267.032 423.555 267.334 423.253C267.636 422.951 267.805 422.542 267.805 422.115C267.805 421.689 267.636 421.279 267.334 420.978C267.032 420.676 266.623 420.506 266.196 420.506H258.471C258.044 420.506 257.635 420.676 257.333 420.978C257.031 421.279 256.862 421.689 256.862 422.115C256.862 422.542 257.031 422.951 257.333 423.253C257.635 423.555 258.044 423.724 258.471 423.724ZM273.921 423.724H281.646C282.073 423.724 282.482 423.555 282.784 423.253C283.086 422.951 283.255 422.542 283.255 422.115C283.255 421.689 283.086 421.279 282.784 420.978C282.482 420.676 282.073 420.506 281.646 420.506H273.921C273.494 420.506 273.085 420.676 272.783 420.978C272.481 421.279 272.312 421.689 272.312 422.115C272.312 422.542 272.481 422.951 272.783 423.253C273.085 423.555 273.494 423.724 273.921 423.724ZM289.371 423.724H297.096C297.523 423.724 297.932 423.555 298.234 423.253C298.536 422.951 298.705 422.542 298.705 422.115C298.705 421.689 298.536 421.279 298.234 420.978C297.932 420.676 297.523 420.506 297.096 420.506H289.371C288.944 420.506 288.535 420.676 288.233 420.978C287.931 421.279 287.762 421.689 287.762 422.115C287.762 422.542 287.931 422.951 288.233 423.253C288.535 423.555 288.944 423.724 289.371 423.724V423.724ZM304.821 423.724H312.546C312.973 423.724 313.382 423.555 313.684 423.253C313.986 422.951 314.155 422.542 314.155 422.115C314.155 421.689 313.986 421.279 313.684 420.978C313.382 420.676 312.973 420.506 312.546 420.506H304.821C304.394 420.506 303.985 420.676 303.683 420.978C303.381 421.279 303.212 421.689 303.212 422.115C303.212 422.542 303.381 422.951 303.683 423.253C303.985 423.555 304.394 423.724 304.821 423.724ZM320.271 423.724H327.996C328.423 423.724 328.832 423.555 329.134 423.253C329.436 422.951 329.605 422.542 329.605 422.115C329.605 421.689 329.436 421.279 329.134 420.978C328.832 420.676 328.423 420.506 327.996 420.506H320.271C319.844 420.506 319.435 420.676 319.133 420.978C318.831 421.279 318.662 421.689 318.662 422.115C318.662 422.542 318.831 422.951 319.133 423.253C319.435 423.555 319.844 423.724 320.271 423.724V423.724ZM335.721 423.724H343.446C343.873 423.724 344.282 423.555 344.584 423.253C344.886 422.951 345.055 422.542 345.055 422.115C345.055 421.689 344.886 421.279 344.584 420.978C344.282 420.676 343.873 420.506 343.446 420.506H335.721C335.294 420.506 334.885 420.676 334.583 420.978C334.281 421.279 334.112 421.689 334.112 422.115C334.112 422.542 334.281 422.951 334.583 423.253C334.885 423.555 335.294 423.724 335.721 423.724ZM351.171 423.724H358.896C359.323 423.724 359.732 423.555 360.034 423.253C360.336 422.951 360.505 422.542 360.505 422.115C360.505 421.689 360.336 421.279 360.034 420.978C359.732 420.676 359.323 420.506 358.896 420.506H351.171C350.744 420.506 350.335 420.676 350.033 420.978C349.731 421.279 349.562 421.689 349.562 422.115C349.562 422.542 349.731 422.951 350.033 423.253C350.335 423.555 350.744 423.724 351.171 423.724ZM366.621 423.724H374.346C374.773 423.724 375.182 423.555 375.484 423.253C375.786 422.951 375.955 422.542 375.955 422.115C375.955 421.689 375.786 421.279 375.484 420.978C375.182 420.676 374.773 420.506 374.346 420.506H366.621C366.194 420.506 365.785 420.676 365.483 420.978C365.181 421.279 365.012 421.689 365.012 422.115C365.012 422.542 365.181 422.951 365.483 423.253C365.785 423.555 366.194 423.724 366.621 423.724V423.724Z" fill="#09132D"/>
<path d="M233.275 437.304H352.974C356.529 437.304 359.411 440.185 359.411 443.739V554.697C359.411 558.252 356.529 561.133 352.974 561.133H233.275C229.719 561.133 226.837 558.252 226.837 554.697V443.739C226.837 440.185 229.719 437.304 233.275 437.304Z" fill="#60FFB0"/>
<path d="M235.611 445.87H350.637V552.561H235.611V445.87Z" fill="white"/>
<path d="M235.612 541.845V552.561H350.662V528.202L329.734 507.279C328.98 506.525 328.084 505.926 327.098 505.518C326.112 505.11 325.056 504.899 323.989 504.899C322.922 504.899 321.865 505.11 320.879 505.518C319.893 505.926 318.998 506.525 318.243 507.279L287.536 537.977L269.267 519.713C268.512 518.958 267.617 518.36 266.631 517.952C265.645 517.543 264.588 517.333 263.521 517.333C262.454 517.333 261.398 517.543 260.412 517.952C259.426 518.36 258.53 518.958 257.776 519.713L235.612 541.845Z" fill="#8ED6F2"/>
<path d="M285.361 514.146C280.483 514.146 276.528 510.193 276.528 505.316C276.528 500.44 280.483 496.486 285.361 496.486C290.239 496.486 294.193 500.44 294.193 505.316C294.193 510.193 290.239 514.146 285.361 514.146Z" fill="#8ED6F2"/>
<path d="M368.481 413.479H380.719C382.113 413.479 383.243 414.608 383.243 416.001V428.236C383.243 429.629 382.113 430.758 380.719 430.758H368.481C367.088 430.758 365.958 429.629 365.958 428.236V416.001C365.958 414.608 367.088 413.479 368.481 413.479Z" fill="#8ED6F2"/>
<path d="M288.135 413.479H300.373C301.766 413.479 302.896 414.608 302.896 416.001V428.236C302.896 429.629 301.766 430.758 300.373 430.758H288.135C286.741 430.758 285.612 429.629 285.612 428.236V416.001C285.612 414.608 286.741 413.479 288.135 413.479Z" fill="#8ED6F2"/>
<path d="M207.782 413.479H220.02C221.414 413.479 222.543 414.608 222.543 416.001V428.236C222.543 429.629 221.414 430.758 220.02 430.758H207.782C206.389 430.758 205.259 429.629 205.259 428.236V416.001C205.259 414.608 206.389 413.479 207.782 413.479Z" fill="#8ED6F2"/>
<path d="M368.481 567.672H380.719C382.113 567.672 383.243 568.801 383.243 570.195V582.429C383.243 583.822 382.113 584.952 380.719 584.952H368.481C367.088 584.952 365.958 583.822 365.958 582.429V570.195C365.958 568.801 367.088 567.672 368.481 567.672Z" fill="#8ED6F2"/>
<path d="M288.135 567.672H300.373C301.766 567.672 302.896 568.801 302.896 570.195V582.429C302.896 583.822 301.766 584.952 300.373 584.952H288.135C286.741 584.952 285.612 583.822 285.612 582.429V570.195C285.612 568.801 286.741 567.672 288.135 567.672Z" fill="#8ED6F2"/>
<path d="M207.782 567.672H220.02C221.414 567.672 222.543 568.801 222.543 570.195V582.429C222.543 583.822 221.414 584.952 220.02 584.952H207.782C206.389 584.952 205.259 583.822 205.259 582.429V570.195C205.259 568.801 206.389 567.672 207.782 567.672Z" fill="#8ED6F2"/>
<path d="M368.481 490.572H380.719C382.113 490.572 383.243 491.702 383.243 493.095V505.329C383.243 506.722 382.113 507.852 380.719 507.852H368.481C367.088 507.852 365.958 506.722 365.958 505.329V493.095C365.958 491.702 367.088 490.572 368.481 490.572Z" fill="#8ED6F2"/>
<path d="M207.782 490.572H220.02C221.414 490.572 222.543 491.702 222.543 493.095V505.329C222.543 506.722 221.414 507.852 220.02 507.852H207.782C206.389 507.852 205.259 506.722 205.259 505.329V493.095C205.259 491.702 206.389 490.572 207.782 490.572Z" fill="#8ED6F2"/>
<path d="M548.249 170.402C518.462 170.402 494.315 146.262 494.315 116.483C494.315 86.7049 518.462 62.5648 548.249 62.5648C578.035 62.5648 602.182 86.7049 602.182 116.483C602.182 146.262 578.035 170.402 548.249 170.402Z" fill="#8ED6F2"/>
<path d="M554.886 135.52C555.647 135.52 556.397 135.328 557.065 134.963C557.733 134.598 558.299 134.071 558.711 133.431C559.123 132.791 559.368 132.057 559.423 131.298C559.477 130.538 559.341 129.777 559.025 129.084L545.719 100.072C545.356 99.2792 544.773 98.6071 544.039 98.1359C543.305 97.6646 542.452 97.4142 541.579 97.4142C540.818 97.4146 540.069 97.6062 539.4 97.9712C538.732 98.3362 538.166 98.863 537.754 99.5034C537.342 100.144 537.097 100.877 537.043 101.637C536.988 102.396 537.124 103.157 537.44 103.85L550.714 132.811C551.072 133.618 551.656 134.304 552.397 134.786C553.138 135.267 554.002 135.522 554.886 135.52V135.52Z" fill="white"/>
<path d="M571.417 116.49L566.132 121.767C565.731 122.168 565.459 122.679 565.348 123.236C565.238 123.792 565.295 124.368 565.512 124.892C565.729 125.416 566.096 125.864 566.567 126.179C567.039 126.495 567.593 126.664 568.16 126.665V126.665C568.92 126.66 569.646 126.354 570.181 125.815L578.614 117.391C578.734 117.271 578.829 117.129 578.894 116.973C578.959 116.817 578.992 116.649 578.992 116.48C578.992 116.311 578.959 116.143 578.894 115.987C578.829 115.831 578.734 115.689 578.614 115.569L570.181 107.151C569.644 106.613 568.914 106.31 568.153 106.308V106.308C567.586 106.309 567.032 106.478 566.561 106.794C566.09 107.109 565.722 107.557 565.505 108.081C565.288 108.605 565.232 109.181 565.342 109.737C565.452 110.294 565.725 110.805 566.126 111.206L571.417 116.49Z" fill="white"/>
<path d="M525.074 116.49L530.359 121.767C530.76 122.168 531.032 122.679 531.143 123.236C531.253 123.792 531.196 124.368 530.979 124.892C530.762 125.416 530.395 125.864 529.924 126.179C529.453 126.495 528.898 126.664 528.331 126.665V126.665C527.571 126.665 526.842 126.364 526.303 125.828L517.87 117.404C517.751 117.284 517.656 117.142 517.591 116.986C517.526 116.83 517.493 116.662 517.493 116.493C517.493 116.324 517.526 116.156 517.591 116C517.656 115.844 517.751 115.702 517.87 115.582L526.303 107.151C526.841 106.613 527.57 106.31 528.331 106.308V106.308C528.898 106.309 529.453 106.478 529.924 106.794C530.395 107.109 530.762 107.557 530.979 108.081C531.196 108.605 531.253 109.181 531.143 109.737C531.032 110.294 530.76 110.805 530.359 111.206L525.074 116.49Z" fill="white"/>
<path d="M478.968 194.124C478.968 193.873 475.215 176.464 473.059 166.489C472.641 164.557 471.575 162.826 470.037 161.584C468.5 160.342 466.583 159.663 464.606 159.66H446.974L438.695 137.901C438.442 137.234 437.992 136.659 437.404 136.253C436.817 135.848 436.12 135.63 435.406 135.629V135.629C434.888 135.63 434.376 135.744 433.908 135.965C433.439 136.186 433.025 136.507 432.695 136.906C432.365 137.304 432.127 137.771 431.998 138.273C431.869 138.774 431.852 139.298 431.949 139.806L437.015 166.457L434.871 168.6C433.75 169.721 432.959 171.128 432.583 172.668C432.207 174.208 432.262 175.822 432.741 177.333L434.447 182.72C436.098 187.938 439.666 192.337 444.431 195.031L459.385 203.494L478.968 194.124Z" fill="white"/>
<path d="M459.385 205.103C459.63 205.115 459.875 205.071 460.1 204.974L479.676 195.597C479.95 195.467 480.18 195.261 480.342 195.005C480.504 194.749 480.59 194.452 480.591 194.149C480.591 193.892 480.591 193.692 474.642 166.173C474.146 163.879 472.881 161.822 471.055 160.345C469.23 158.868 466.955 158.059 464.606 158.051H448.081L440.195 137.329C439.708 136.171 438.813 135.232 437.681 134.687C436.549 134.143 435.257 134.031 434.048 134.373C432.839 134.714 431.797 135.486 431.117 136.542C430.438 137.599 430.168 138.867 430.359 140.109L435.264 165.922L433.726 167.46C432.393 168.787 431.452 170.456 431.005 172.283C430.559 174.109 430.625 176.024 431.196 177.816L432.902 183.202C434.67 188.813 438.506 193.541 443.633 196.428L458.613 204.897C458.849 205.03 459.115 205.1 459.385 205.103V205.103ZM477.14 193.203L459.456 201.686L445.21 193.635C440.792 191.147 437.487 187.072 435.966 182.237L434.26 176.85C433.874 175.624 433.833 174.316 434.139 173.068C434.446 171.819 435.088 170.679 435.998 169.771L438.142 167.628C438.327 167.443 438.464 167.215 438.542 166.965C438.619 166.715 438.634 166.45 438.586 166.193L433.52 139.542C433.472 139.09 433.585 138.634 433.84 138.257C434.096 137.88 434.476 137.605 434.914 137.481C435.352 137.357 435.821 137.392 436.236 137.58C436.651 137.767 436.986 138.095 437.182 138.506L445.461 160.265C445.577 160.57 445.784 160.833 446.053 161.018C446.322 161.203 446.641 161.302 446.967 161.302H464.606C466.215 161.308 467.773 161.861 469.025 162.87C470.277 163.88 471.148 165.285 471.494 166.856C474.501 180.795 476.496 190.082 477.146 193.21L477.14 193.203Z" fill="#09132D"/>
<path d="M455.986 207.13L483.919 259.292L489.79 270.271C492.39 275.127 496.251 279.193 500.965 282.042L509.624 287.268L580.147 329.827C580.147 329.827 635.284 293.639 587.099 264.826L528.093 244.419L481.666 190.623C481.666 190.623 466.892 187.089 455.986 207.13Z" fill="#60FFB0"/>
<path d="M466.885 216.005C467.135 216.005 467.381 215.947 467.605 215.835C467.828 215.724 468.023 215.561 468.173 215.362C474.99 206.236 485.374 204.163 485.477 204.138C485.889 204.051 486.251 203.806 486.485 203.454C486.719 203.103 486.805 202.675 486.726 202.261C486.647 201.847 486.408 201.48 486.061 201.24C485.714 201 485.287 200.906 484.871 200.978C477.204 202.785 470.396 207.184 465.598 213.431C465.418 213.67 465.309 213.954 465.282 214.252C465.255 214.549 465.312 214.848 465.446 215.116C465.579 215.383 465.785 215.608 466.039 215.765C466.293 215.922 466.586 216.005 466.885 216.005V216.005Z" fill="#09132D"/>
<path d="M464.735 207.922C463.252 207.922 462.051 206.72 462.051 205.238C462.051 203.756 463.252 202.554 464.735 202.554C466.218 202.554 467.419 203.756 467.419 205.238C467.419 206.72 466.218 207.922 464.735 207.922Z" fill="white"/>
<path d="M464.735 209.531C465.584 209.531 466.414 209.279 467.121 208.807C467.827 208.336 468.377 207.665 468.702 206.881C469.027 206.096 469.112 205.233 468.946 204.401C468.781 203.568 468.372 202.803 467.771 202.203C467.171 201.602 466.406 201.194 465.573 201.028C464.74 200.862 463.876 200.947 463.092 201.272C462.307 201.597 461.637 202.147 461.165 202.853C460.693 203.559 460.441 204.389 460.441 205.238C460.441 206.377 460.894 207.468 461.699 208.273C462.504 209.078 463.596 209.531 464.735 209.531ZM464.735 204.17C464.948 204.17 465.155 204.233 465.332 204.351C465.509 204.469 465.647 204.637 465.728 204.833C465.81 205.03 465.831 205.246 465.789 205.454C465.748 205.663 465.646 205.854 465.495 206.005C465.345 206.155 465.153 206.257 464.945 206.299C464.736 206.34 464.52 206.319 464.324 206.238C464.127 206.156 463.959 206.018 463.841 205.842C463.723 205.665 463.66 205.457 463.66 205.245C463.66 204.96 463.773 204.686 463.975 204.485C464.176 204.283 464.45 204.17 464.735 204.17V204.17Z" fill="#09132D"/>
<path d="M483.919 259.292L489.79 270.271C492.39 275.127 496.25 279.193 500.965 282.042L509.624 287.268C510.625 286.391 511.502 285.382 512.231 284.269C517.381 276.482 514.368 265.444 505.529 259.614C498.41 254.928 489.712 255.031 483.919 259.292Z" fill="white"/>
<path d="M726.11 485.102L746.807 558.61H563.216L580.822 482.901L726.11 485.102Z" fill="#8ED6F2"/>
<path d="M789.288 531.362C791.041 539.114 789.643 547.245 785.401 553.967C781.159 560.689 774.42 565.452 766.667 567.208L655.008 592.501H552.864L493.639 561.455C490.237 559.672 487.233 557.217 484.808 554.238C482.384 551.259 480.591 547.819 479.536 544.126C478.482 540.433 478.19 536.564 478.676 532.755C479.163 528.946 480.419 525.275 482.367 521.965V521.965C484.874 517.707 488.449 514.178 492.74 511.727C497.031 509.277 501.888 507.989 506.83 507.993H760.036C766.841 507.993 773.443 510.305 778.759 514.552C784.075 518.799 787.788 524.726 789.288 531.362V531.362Z" fill="#8ED6F2"/>
<path d="M629.142 527.976C629.461 527.977 629.773 527.883 630.038 527.706C630.303 527.529 630.51 527.278 630.632 526.983C630.754 526.689 630.786 526.365 630.724 526.053C630.661 525.74 630.507 525.453 630.282 525.228L628.788 523.735C627.489 522.442 626.458 520.905 625.756 519.211C625.055 517.518 624.696 515.702 624.7 513.869V487.084C624.7 486.657 624.531 486.248 624.229 485.946C623.927 485.644 623.518 485.475 623.091 485.475C622.664 485.475 622.255 485.644 621.953 485.946C621.651 486.248 621.482 486.657 621.482 487.084V513.889C621.476 516.145 621.918 518.38 622.782 520.465C623.646 522.549 624.915 524.442 626.516 526.033L628.009 527.526C628.313 527.819 628.72 527.981 629.142 527.976Z" fill="#09132D"/>
<path d="M630.134 551.634C630.56 551.634 630.97 551.464 631.272 551.163C631.573 550.861 631.743 550.452 631.743 550.025V483.563C631.743 483.137 631.573 482.728 631.272 482.426C630.97 482.124 630.56 481.955 630.134 481.955C629.707 481.955 629.297 482.124 628.996 482.426C628.694 482.728 628.524 483.137 628.524 483.563V550.025C628.524 550.452 628.694 550.861 628.996 551.163C629.297 551.464 629.707 551.634 630.134 551.634Z" fill="#09132D"/>
<path d="M763.467 577.454C763.481 589.693 759.375 601.581 751.809 611.203H698.751L689.404 607.309L659.148 594.702L672.538 570.935L733.578 557.42C736.331 556.807 739.13 556.426 741.947 556.281C748.109 555.956 754.279 556.749 760.158 558.623C760.158 558.623 763.467 566.327 763.467 577.454Z" fill="#8ED6F2"/>
<path d="M670.915 585.016C670.915 585.016 702.832 583.143 718.907 581.155C719.698 575.979 721.493 571.007 724.192 566.52C697.116 571.804 672.351 574.552 672.351 574.552L670.915 585.016Z" fill="white"/>
<path d="M670.915 586.612H671.012C671.334 586.612 703.167 584.714 719.106 582.751C719.451 582.708 719.772 582.556 720.023 582.316C720.274 582.075 720.44 581.761 720.497 581.419C721.248 576.447 722.969 571.671 725.563 567.363C725.726 567.097 725.809 566.789 725.8 566.476C725.791 566.164 725.691 565.861 725.513 565.605C725.335 565.348 725.086 565.149 724.796 565.032C724.507 564.914 724.19 564.883 723.883 564.943C697.187 570.15 672.422 572.93 672.171 572.956C671.814 572.995 671.481 573.153 671.224 573.404C670.968 573.655 670.802 573.984 670.754 574.339L669.325 584.791C669.295 585.018 669.313 585.248 669.379 585.467C669.445 585.686 669.557 585.889 669.708 586.061C669.858 586.234 670.044 586.372 670.252 586.467C670.46 586.562 670.686 586.612 670.915 586.612V586.612ZM717.529 579.694C703.74 581.316 679.754 582.847 672.776 583.279L673.773 576.006C678.891 575.401 699.008 572.923 721.121 568.747C719.429 572.221 718.221 575.911 717.529 579.713V579.694Z" fill="#09132D"/>
<path d="M685.172 599.229C680.915 597.076 678.499 593.286 679.775 590.765C681.051 588.243 685.537 587.945 689.794 590.099C694.051 592.253 696.468 596.042 695.192 598.564C693.915 601.085 689.43 601.383 685.172 599.229Z" fill="white"/>
<path d="M763.467 577.454C763.481 589.693 759.375 601.581 751.809 611.203H698.751L689.404 607.309L732.87 604.819C732.87 604.819 708.742 575.092 741.29 556.622C741.515 556.499 741.734 556.371 741.934 556.261C748.096 555.936 754.266 556.73 760.145 558.604C760.145 558.604 763.467 566.327 763.467 577.454Z" fill="white"/>
<path d="M698.757 612.818H751.815C752.065 612.818 752.312 612.76 752.535 612.649C752.759 612.537 752.953 612.375 753.103 612.175C761.06 601.833 765.089 590.145 765.089 577.422C765.089 566.095 761.806 558.269 761.665 557.941C761.574 557.728 761.438 557.538 761.267 557.383C761.096 557.227 760.894 557.11 760.673 557.04C754.611 555.101 748.245 554.281 741.889 554.62C741.664 554.633 741.445 554.692 741.245 554.794L740.698 555.09L740.537 555.18C730.623 560.805 724.778 568.052 723.156 576.663C720.999 588.073 726.806 598.692 729.889 603.345L689.333 605.668C688.97 605.69 688.626 605.834 688.355 606.076C688.084 606.319 687.904 606.645 687.843 607.003C687.781 607.362 687.843 607.73 688.018 608.048C688.193 608.367 688.47 608.617 688.805 608.758L698.152 612.651C698.341 612.746 698.547 612.803 698.757 612.818ZM751.017 609.601H699.079L696.504 608.519L732.986 606.428C733.281 606.411 733.567 606.313 733.81 606.144C734.054 605.976 734.246 605.743 734.366 605.472C734.486 605.201 734.528 604.903 734.489 604.609C734.45 604.316 734.331 604.038 734.144 603.808C734.041 603.68 723.754 590.77 726.31 577.28C727.758 569.628 733.076 563.122 742.108 558.025L742.269 557.935L742.417 557.851C748.01 557.594 753.607 558.291 758.967 559.91C760.916 565.553 761.9 571.484 761.877 577.454C761.909 589.075 758.09 600.379 751.017 609.601V609.601Z" fill="#09132D"/>
<path d="M669.48 600.861C669.48 600.861 499.324 582.403 483.275 571.166C479.71 568.557 476.808 565.147 474.803 561.21C466.898 546.37 468.186 523.323 485.206 513.142C490.562 509.924 497.47 507.993 506.147 507.993L674.81 566.558C674.81 566.558 686.32 583.697 669.48 600.861Z" fill="#8ED6F2"/>
<path d="M669.48 602.47C669.693 602.469 669.904 602.426 670.101 602.344C670.298 602.261 670.476 602.14 670.626 601.987C688.181 584.089 676.22 565.812 676.097 565.632C675.907 565.335 675.624 565.109 675.293 564.988L506.978 506.558C506.776 506.48 506.561 506.443 506.345 506.45C506.129 506.457 505.916 506.507 505.72 506.598C505.524 506.689 505.348 506.818 505.203 506.978C505.058 507.138 504.946 507.326 504.875 507.53C504.804 507.734 504.775 507.951 504.79 508.166C504.804 508.382 504.862 508.592 504.96 508.785C505.058 508.978 505.193 509.149 505.358 509.289C505.524 509.428 505.715 509.532 505.922 509.596L673.703 567.839C675.299 570.523 682.58 584.636 668.875 599.149C658.935 598.055 558.15 586.863 509.263 576.991C509.056 576.949 508.843 576.947 508.635 576.988C508.428 577.028 508.23 577.109 508.054 577.225C507.877 577.342 507.726 577.492 507.607 577.667C507.489 577.842 507.406 578.039 507.364 578.246C507.322 578.453 507.321 578.666 507.361 578.874C507.401 579.081 507.482 579.279 507.598 579.455C507.715 579.631 507.865 579.783 508.04 579.901C508.216 580.019 508.412 580.102 508.619 580.144C559.946 590.519 668.218 602.322 669.306 602.438H669.48V602.47Z" fill="#09132D"/>
<path d="M663.319 567.189C663.319 567.189 669.042 578.632 659.135 592.494Z" fill="white"/>
<path d="M659.135 594.11C659.385 594.11 659.631 594.052 659.855 593.94C660.078 593.829 660.273 593.666 660.422 593.466C670.774 578.979 664.986 567.002 664.735 566.5C664.545 566.118 664.21 565.827 663.805 565.691C663.4 565.556 662.958 565.586 662.575 565.776C662.193 565.967 661.902 566.301 661.766 566.706C661.63 567.111 661.661 567.553 661.851 567.936C662.07 568.373 667.001 578.754 657.802 591.593C657.637 591.835 657.541 592.118 657.524 592.41C657.508 592.703 657.572 592.995 657.709 593.254C657.846 593.513 658.051 593.729 658.302 593.88C658.554 594.031 658.841 594.11 659.135 594.11Z" fill="#09132D"/>
<path d="M515.379 539.123C515.378 543.852 514.101 548.494 511.683 552.559C509.265 556.624 505.795 559.962 501.639 562.221C497.483 564.48 492.794 565.577 488.067 565.396C483.339 565.214 478.748 563.762 474.777 561.191C466.872 546.35 468.16 523.304 485.181 513.123C488.922 512.563 492.74 512.816 496.374 513.866C500.009 514.915 503.374 516.736 506.24 519.204C509.107 521.672 511.407 524.729 512.984 528.166C514.561 531.604 515.378 535.341 515.379 539.123Z" fill="white"/>
<path d="M502.684 577.454C502.67 589.693 506.777 601.581 514.342 611.203H567.4L576.747 607.309L607.004 594.702C610.358 582.294 604.641 571.006 593.569 570.935L532.528 557.42C529.775 556.807 526.976 556.426 524.16 556.281C517.997 555.956 511.827 556.749 505.948 558.623C505.948 558.623 502.684 566.327 502.684 577.454Z" fill="#8ED6F2"/>
<path d="M514.342 612.818H567.4C567.621 612.822 567.84 612.781 568.044 612.696L607.667 596.188C607.894 596.094 608.096 595.948 608.258 595.763C608.419 595.577 608.537 595.358 608.6 595.12C610.615 587.674 609.553 580.26 605.768 575.285C604.368 573.434 602.559 571.933 600.481 570.899C598.404 569.865 596.115 569.326 593.794 569.326L532.915 555.811C523.831 553.793 514.374 554.222 505.51 557.053C505.29 557.123 505.087 557.24 504.916 557.395C504.745 557.551 504.61 557.741 504.519 557.954C504.377 558.282 501.094 566.108 501.094 577.435C501.094 590.139 505.13 601.82 513.081 612.188C513.229 612.382 513.42 612.539 513.639 612.649C513.857 612.758 514.098 612.816 514.342 612.818V612.818ZM567.078 609.601H515.141C508.074 600.379 504.26 589.077 504.293 577.461C504.271 571.491 505.255 565.56 507.203 559.917C515.316 557.463 523.925 557.139 532.2 558.977L593.24 572.492C593.35 572.517 593.462 572.53 593.575 572.531C595.433 572.496 597.274 572.903 598.944 573.718C600.614 574.534 602.066 575.735 603.18 577.222C606.238 581.245 607.145 587.288 605.658 593.511L567.078 609.601Z" fill="#09132D"/>
<path d="M595.242 585.016C595.242 585.016 563.325 583.143 547.251 581.155C546.46 575.979 544.664 571.007 541.966 566.52C569.042 571.804 593.807 574.552 593.807 574.552L595.242 585.016Z" fill="white"/>
<path d="M595.242 586.612C595.472 586.613 595.7 586.564 595.909 586.469C596.119 586.374 596.305 586.235 596.457 586.062C596.608 585.888 596.72 585.685 596.786 585.464C596.852 585.244 596.87 585.012 596.839 584.785L595.41 574.333C595.362 573.977 595.196 573.648 594.94 573.397C594.683 573.147 594.35 572.989 593.994 572.949C593.749 572.949 568.977 570.143 542.281 564.937C541.974 564.877 541.657 564.908 541.368 565.025C541.078 565.143 540.829 565.342 540.651 565.598C540.473 565.855 540.373 566.158 540.364 566.47C540.356 566.782 540.438 567.09 540.601 567.356C543.194 571.665 544.916 576.44 545.667 581.412C545.724 581.754 545.891 582.069 546.141 582.309C546.392 582.549 546.713 582.702 547.058 582.744C562.997 584.707 594.83 586.606 595.152 586.606H595.249L595.242 586.612ZM592.384 576.006L593.382 583.278C586.404 582.847 562.418 581.348 548.629 579.694C547.935 575.9 546.726 572.22 545.036 568.753C567.156 572.936 587.273 575.414 592.384 576.019V576.006Z" fill="#09132D"/>
<path d="M570.922 598.662C569.646 596.141 572.062 592.351 576.32 590.197C580.577 588.044 585.063 588.342 586.339 590.863C587.615 593.384 585.198 597.174 580.941 599.328C576.684 601.481 572.198 601.183 570.922 598.662Z" fill="white"/>
<path d="M502.684 577.454C502.67 589.693 506.777 601.581 514.342 611.203H567.4L576.748 607.309L533.282 604.819C533.282 604.819 557.409 575.092 524.861 556.622C524.636 556.499 524.417 556.371 524.218 556.261C518.055 555.936 511.885 556.73 506.006 558.604C506.006 558.604 502.684 566.327 502.684 577.454Z" fill="white"/>
<path d="M514.342 612.818H567.4C567.621 612.822 567.84 612.781 568.044 612.696L577.391 608.802C577.726 608.662 578.004 608.412 578.178 608.093C578.353 607.775 578.415 607.407 578.354 607.048C578.293 606.69 578.112 606.364 577.841 606.121C577.571 605.879 577.226 605.735 576.863 605.713L536.307 603.39C539.391 598.737 545.197 588.125 543.041 576.708C541.412 568.071 535.567 560.85 525.66 555.232L525.499 555.141L524.945 554.839C524.745 554.737 524.526 554.678 524.301 554.665C517.945 554.326 511.579 555.146 505.517 557.085C505.296 557.155 505.094 557.272 504.923 557.428C504.752 557.583 504.616 557.774 504.525 557.986C504.384 558.314 501.1 566.14 501.1 577.467C501.1 590.171 505.137 601.852 513.087 612.22C513.238 612.407 513.43 612.558 513.647 612.662C513.864 612.765 514.102 612.819 514.342 612.818ZM567.078 609.601H515.141C509.845 602.604 506.351 594.413 504.967 585.749C503.583 577.085 504.351 568.214 507.203 559.917C512.563 558.295 518.16 557.599 523.754 557.857L523.909 557.947L524.069 558.038C533.082 563.186 538.406 569.622 539.861 577.287C542.436 590.802 532.136 603.673 532.026 603.815C531.84 604.045 531.72 604.322 531.681 604.616C531.642 604.909 531.685 605.208 531.805 605.479C531.925 605.749 532.117 605.982 532.36 606.151C532.604 606.319 532.889 606.417 533.185 606.434L569.666 608.494L567.078 609.601Z" fill="#09132D"/>
<path d="M617.478 566.533L591.728 572.968C591.728 572.968 587.105 585.679 597.837 590.3L628.215 586.007L617.478 566.533Z" fill="white"/>
<path d="M597.83 591.909H598.056L628.434 587.616C628.692 587.58 628.937 587.481 629.149 587.329C629.36 587.177 629.531 586.976 629.648 586.743C629.764 586.51 629.823 586.252 629.818 585.992C629.812 585.731 629.744 585.476 629.619 585.248L618.887 565.773C618.715 565.462 618.445 565.217 618.119 565.075C617.793 564.933 617.43 564.903 617.085 564.988L591.335 571.424C591.08 571.488 590.844 571.614 590.649 571.79C590.454 571.966 590.305 572.187 590.215 572.434C588.438 577.325 587.608 587.661 597.199 591.793C597.4 591.873 597.614 591.913 597.83 591.909V591.909ZM625.673 584.739L598.069 588.639C590.659 585.138 592.275 576.92 592.989 574.307L616.666 568.393L625.673 584.739Z" fill="#09132D"/>
<path d="M618.462 599.979C618.462 599.979 766.828 582.397 782.902 571.147C786.467 568.538 789.369 565.127 791.374 561.191C799.279 546.35 797.991 523.304 780.971 513.123C775.615 509.905 768.707 507.974 760.03 507.974L611.195 561.674C611.195 561.674 601.628 582.815 618.462 599.979Z" fill="#8ED6F2"/>
<path d="M618.463 601.588H618.649C619.608 601.472 715.089 590.107 760.615 579.906C760.822 579.86 761.017 579.774 761.19 579.652C761.363 579.531 761.51 579.377 761.623 579.198C761.737 579.02 761.814 578.821 761.85 578.613C761.886 578.405 761.881 578.191 761.835 577.985C761.789 577.779 761.703 577.584 761.581 577.411C761.46 577.238 761.306 577.091 761.127 576.977C760.949 576.864 760.75 576.787 760.542 576.751C760.333 576.714 760.12 576.719 759.914 576.765C716.782 586.419 628.402 597.173 619.068 598.293C605.427 583.793 611.098 566.404 612.418 562.961L739.301 517.184C739.691 517.03 740.005 516.731 740.178 516.349C740.35 515.967 740.367 515.533 740.224 515.139C740.082 514.746 739.791 514.423 739.414 514.24C739.038 514.057 738.604 514.028 738.206 514.159L610.654 560.181C610.451 560.254 610.266 560.366 610.107 560.512C609.949 560.658 609.822 560.834 609.733 561.03C609.63 561.249 599.903 583.369 617.317 601.112C617.467 601.263 617.645 601.383 617.842 601.465C618.039 601.547 618.25 601.588 618.463 601.588V601.588Z" fill="#09132D"/>
<path d="M628.814 593.228C629.113 593.228 629.406 593.145 629.66 592.988C629.914 592.831 630.12 592.606 630.253 592.339C630.387 592.071 630.444 591.772 630.417 591.475C630.39 591.177 630.281 590.893 630.101 590.654C620.735 577.538 624.16 562.845 624.192 562.697C624.242 562.492 624.251 562.278 624.218 562.07C624.186 561.861 624.112 561.661 624.002 561.48C623.892 561.3 623.748 561.142 623.577 561.018C623.406 560.893 623.213 560.803 623.007 560.753C622.802 560.704 622.589 560.695 622.38 560.727C622.171 560.76 621.97 560.833 621.79 560.943C621.609 561.053 621.452 561.197 621.328 561.368C621.203 561.539 621.113 561.732 621.063 561.938C620.902 562.581 617.265 578.22 627.501 592.52C627.646 592.735 627.842 592.912 628.07 593.035C628.299 593.159 628.554 593.225 628.814 593.228V593.228Z" fill="#09132D"/>
<path d="M750.779 539.123C750.78 543.852 752.056 548.494 754.474 552.559C756.892 556.624 760.362 559.962 764.519 562.221C768.675 564.48 773.364 565.577 778.091 565.396C782.818 565.214 787.409 563.762 791.38 561.191C799.285 546.35 797.998 523.304 780.977 513.123C777.236 512.563 773.418 512.816 769.784 513.866C766.149 514.915 762.784 516.736 759.917 519.204C757.051 521.672 754.751 524.729 753.174 528.166C751.597 531.604 750.78 535.341 750.779 539.123V539.123Z" fill="white"/>
<path d="M706.302 285.607C706.302 285.607 667.677 257.876 587.099 264.814C587.099 264.814 564.317 284.288 569.596 342.042C574.874 399.796 576.2 489.272 576.2 489.272H730.057C730.057 489.272 731.067 398.837 706.302 285.607Z" fill="#60FFB0"/>
<path d="M586.99 480.77H723.909C724.336 480.77 724.745 480.601 725.047 480.299C725.349 479.997 725.518 479.588 725.518 479.161C725.518 478.735 725.349 478.325 725.047 478.024C724.745 477.722 724.336 477.552 723.909 477.552H586.983C586.772 477.553 586.563 477.595 586.367 477.676C586.172 477.757 585.995 477.876 585.846 478.026C585.697 478.176 585.579 478.353 585.498 478.549C585.418 478.744 585.377 478.953 585.377 479.165C585.377 479.376 585.419 479.585 585.501 479.78C585.582 479.975 585.701 480.152 585.851 480.301C586 480.451 586.178 480.569 586.373 480.649C586.569 480.73 586.778 480.771 586.99 480.77V480.77Z" fill="#09132D"/>
<path d="M568.99 319.247C569.404 319.247 569.802 319.088 570.102 318.803C570.402 318.518 570.58 318.128 570.6 317.715C571.932 290.55 580.256 275.883 585.065 269.524C585.321 269.183 585.431 268.754 585.371 268.332C585.31 267.909 585.084 267.528 584.743 267.272C584.401 267.016 583.972 266.906 583.55 266.966C583.127 267.027 582.746 267.252 582.49 267.594C577.436 274.229 568.746 289.546 567.375 317.58C567.354 318.006 567.502 318.422 567.788 318.739C568.075 319.055 568.474 319.245 568.9 319.266H568.978L568.99 319.247Z" fill="#09132D"/>
<path d="M664.252 280.131C662.308 284.701 659.383 288.789 655.684 292.105C651.986 295.421 647.604 297.885 642.848 299.322C641.251 290.569 636.854 279.558 636.854 279.558C631.981 286.283 629.406 295.171 628.763 299.225C612.946 294.881 611.143 279.68 611.143 279.68C613.074 264.447 626.175 252.978 637.421 253.364C662.27 254.207 664.252 280.131 664.252 280.131Z" fill="white"/>
<path d="M642.854 300.931C643.018 300.932 643.181 300.908 643.337 300.86C648.309 299.344 652.89 296.76 656.76 293.29C660.629 289.819 663.694 285.545 665.74 280.768C665.843 280.529 665.888 280.268 665.868 280.008C665.868 279.732 663.474 252.637 637.485 251.755C625.982 251.369 611.69 262.658 609.553 279.481C609.537 279.611 609.537 279.743 609.553 279.873C609.553 280.034 611.677 296.2 628.344 300.783C628.561 300.843 628.789 300.856 629.012 300.822C629.235 300.789 629.448 300.709 629.638 300.587C629.828 300.466 629.99 300.306 630.115 300.118C630.239 299.93 630.322 299.718 630.359 299.496C631.444 293.712 633.517 288.158 636.488 283.078C637.884 286.907 640.228 293.813 641.29 299.611C641.357 299.979 641.55 300.311 641.835 300.552C642.121 300.792 642.481 300.926 642.854 300.931ZM662.611 279.873C660.85 283.863 658.299 287.455 655.113 290.433C651.927 293.412 648.171 295.715 644.071 297.204C642.262 288.793 638.522 279.39 638.354 278.966C638.247 278.699 638.071 278.466 637.843 278.291C637.615 278.116 637.345 278.005 637.06 277.969C636.775 277.934 636.485 277.975 636.222 278.089C635.958 278.203 635.73 278.386 635.561 278.618C631.016 284.874 628.479 292.661 627.52 297.159C615.199 292.867 613.023 281.36 612.772 279.68C614.703 265.116 627.353 254.639 637.369 254.973C647.071 255.302 654.261 259.633 658.748 267.845C660.754 271.587 662.063 275.663 662.611 279.873Z" fill="#09132D"/>
<path d="M475.679 529.559H599.923C600.763 529.56 601.592 529.368 602.346 528.998C603.101 528.628 603.761 528.091 604.275 527.426C604.79 526.762 605.146 525.989 605.315 525.166C605.484 524.344 605.463 523.493 605.253 522.68L578.37 419.026C578.063 417.846 577.373 416.802 576.409 416.056C575.444 415.311 574.259 414.907 573.04 414.907H448.796C447.955 414.907 447.126 415.099 446.372 415.469C445.617 415.839 444.957 416.376 444.443 417.04C443.928 417.704 443.573 418.478 443.403 419.3C443.234 420.123 443.255 420.974 443.465 421.787L470.329 525.441C470.637 526.624 471.329 527.671 472.298 528.416C473.267 529.162 474.456 529.564 475.679 529.559Z" fill="white"/>
<path d="M475.679 531.168H599.923C601.011 531.175 602.086 530.931 603.065 530.455C604.043 529.979 604.899 529.284 605.565 528.423C606.232 527.563 606.691 526.561 606.907 525.494C607.123 524.428 607.09 523.326 606.811 522.274L579.928 418.64C579.538 417.112 578.648 415.757 577.4 414.792C576.152 413.826 574.617 413.305 573.04 413.311H448.796C447.707 413.305 446.632 413.549 445.654 414.025C444.675 414.501 443.819 415.196 443.153 416.057C442.487 416.917 442.028 417.919 441.812 418.986C441.596 420.052 441.629 421.154 441.908 422.205L468.791 525.84C469.181 527.368 470.07 528.723 471.318 529.688C472.566 530.653 474.101 531.174 475.679 531.168ZM573.04 416.51C573.903 416.509 574.741 416.795 575.424 417.323C576.107 417.851 576.595 418.59 576.812 419.425L603.656 523.079C603.813 523.655 603.833 524.26 603.716 524.845C603.599 525.431 603.348 525.981 602.983 526.453C602.617 526.925 602.147 527.306 601.609 527.566C601.072 527.826 600.481 527.957 599.884 527.951H475.64C474.776 527.957 473.934 527.673 473.25 527.144C472.566 526.616 472.08 525.873 471.868 525.035L445.004 421.382C444.848 420.805 444.827 420.201 444.944 419.615C445.061 419.03 445.312 418.479 445.678 418.007C446.043 417.535 446.513 417.154 447.051 416.894C447.589 416.635 448.179 416.503 448.776 416.51H573.02H573.04Z" fill="#09132D"/>
<path d="M465.99 529.559H590.234C591.074 529.56 591.903 529.368 592.658 528.998C593.413 528.628 594.072 528.091 594.587 527.426C595.101 526.762 595.457 525.989 595.626 525.166C595.796 524.344 595.775 523.493 595.564 522.68L568.681 419.026C568.375 417.846 567.685 416.802 566.72 416.056C565.755 415.311 564.57 414.907 563.351 414.907H439.107C438.267 414.907 437.438 415.099 436.683 415.469C435.929 415.839 435.269 416.376 434.754 417.04C434.24 417.704 433.884 418.478 433.715 419.3C433.545 420.123 433.567 420.974 433.777 421.787L460.641 525.441C460.948 526.624 461.641 527.671 462.61 528.416C463.578 529.162 464.768 529.564 465.99 529.559V529.559Z" fill="white"/>
<path d="M465.99 531.169H590.234C591.322 531.175 592.398 530.931 593.376 530.455C594.355 529.979 595.211 529.284 595.877 528.423C596.543 527.563 597.002 526.561 597.218 525.494C597.434 524.428 597.401 523.326 597.122 522.274L570.239 418.64C569.849 417.112 568.959 415.757 567.712 414.792C566.464 413.826 564.929 413.305 563.351 413.311H439.107C438.019 413.305 436.944 413.549 435.965 414.025C434.987 414.501 434.131 415.196 433.465 416.057C432.798 416.917 432.339 417.919 432.123 418.986C431.907 420.052 431.94 421.154 432.219 422.205L459.083 525.859C459.477 527.387 460.372 528.74 461.623 529.702C462.875 530.664 464.412 531.18 465.99 531.169ZM563.358 416.51C564.222 416.504 565.063 416.788 565.747 417.316C566.431 417.845 566.918 418.587 567.13 419.425L594 523.079C594.156 523.655 594.177 524.26 594.06 524.845C593.943 525.431 593.692 525.981 593.326 526.453C592.961 526.925 592.491 527.306 591.953 527.566C591.415 527.826 590.825 527.958 590.228 527.951H465.984C465.119 527.957 464.278 527.673 463.594 527.144C462.91 526.616 462.423 525.873 462.211 525.035L435.348 421.382C435.191 420.805 435.171 420.201 435.288 419.615C435.405 419.03 435.656 418.479 436.021 418.007C436.387 417.535 436.857 417.154 437.395 416.894C437.932 416.635 438.523 416.503 439.12 416.51H563.364H563.358Z" fill="#09132D"/>
<path d="M614.426 540.558H476.419C473.457 540.558 471.057 538.158 471.057 535.197V534.914C471.057 531.953 473.457 529.553 476.419 529.553H614.426C617.388 529.553 619.789 531.953 619.789 534.914V535.197C619.789 538.158 617.388 540.558 614.426 540.558Z" fill="white"/>
<path d="M476.419 542.174H614.42C616.268 542.17 618.039 541.435 619.346 540.128C620.653 538.822 621.388 537.051 621.392 535.204V534.927C621.388 533.079 620.653 531.309 619.346 530.002C618.039 528.696 616.268 527.96 614.42 527.957H476.419C474.571 527.96 472.8 528.696 471.493 530.002C470.186 531.309 469.451 533.079 469.447 534.927V535.204C469.451 537.051 470.186 538.822 471.493 540.128C472.8 541.435 474.571 542.17 476.419 542.174V542.174ZM614.42 531.168C615.415 531.17 616.368 531.566 617.072 532.269C617.775 532.973 618.171 533.926 618.173 534.921V535.197C618.171 536.192 617.775 537.145 617.072 537.848C616.368 538.552 615.415 538.948 614.42 538.949H476.419C475.424 538.948 474.471 538.552 473.767 537.848C473.064 537.145 472.668 536.192 472.666 535.197V534.921C472.668 533.926 473.064 532.973 473.767 532.269C474.471 531.566 475.424 531.17 476.419 531.168H614.42Z" fill="#09132D"/>
<path d="M612.386 529.56H707.982C710.944 529.56 713.345 531.96 713.345 534.921V535.204C713.345 538.164 710.944 540.565 707.982 540.565H612.386C609.424 540.565 607.023 538.164 607.023 535.204V534.921C607.023 531.96 609.424 529.56 612.386 529.56Z" fill="white"/>
<path d="M612.386 542.174H707.982C709.83 542.17 711.602 541.435 712.908 540.128C714.215 538.822 714.951 537.051 714.954 535.204V534.927C714.951 533.079 714.215 531.309 712.908 530.002C711.602 528.696 709.83 527.96 707.982 527.957H612.386C610.538 527.96 608.766 528.696 607.459 530.002C606.153 531.309 605.417 533.079 605.414 534.927V535.204C605.417 537.051 606.153 538.822 607.459 540.128C608.766 541.435 610.538 542.17 612.386 542.174V542.174ZM707.982 531.168C708.977 531.17 709.931 531.566 710.634 532.269C711.338 532.973 711.734 533.926 711.735 534.921V535.197C711.734 536.192 711.338 537.145 710.634 537.848C709.931 538.552 708.977 538.948 707.982 538.949H612.386C611.391 538.948 610.437 538.552 609.734 537.848C609.03 537.145 608.634 536.192 608.632 535.197V534.921C608.634 533.926 609.03 532.973 609.734 532.269C610.437 531.566 611.391 531.17 612.386 531.168H707.982Z" fill="#09132D"/>
<path d="M661.227 500.181L681.183 514.043C681.183 514.043 716.782 483.062 736.005 460.472C742.577 452.749 747.232 445.985 747.908 441.809C748.468 438.314 747.979 429.735 746.62 418.28C741.631 375.637 724.855 293.214 706.276 285.672C695.713 281.315 682.837 291.213 683.513 316.64C684.189 342.068 697.386 428.545 697.386 428.545L661.227 500.181Z" fill="#60FFB0"/>
<path d="M710.931 488.261C711.349 488.263 711.751 488.101 712.051 487.811C718.34 481.716 723.96 476.04 728.743 470.943C728.888 470.789 729.001 470.608 729.075 470.41C729.15 470.212 729.184 470.002 729.178 469.79C729.171 469.579 729.122 469.371 729.035 469.179C728.948 468.986 728.824 468.813 728.669 468.668C728.515 468.524 728.334 468.411 728.136 468.336C727.938 468.262 727.727 468.227 727.516 468.234C727.305 468.241 727.097 468.289 726.904 468.376C726.712 468.464 726.538 468.588 726.394 468.742C721.643 473.807 716.094 479.445 709.811 485.475C709.573 485.696 709.407 485.985 709.336 486.302C709.265 486.62 709.292 486.951 709.414 487.253C709.535 487.554 709.745 487.812 710.016 487.992C710.286 488.172 710.606 488.266 710.931 488.261V488.261Z" fill="#09132D"/>
<path d="M685.606 506.301C685.952 506.302 686.29 506.191 686.569 505.985C686.848 505.778 687.052 505.487 687.152 505.155C687.252 504.823 687.242 504.468 687.123 504.142C687.005 503.816 686.784 503.537 686.494 503.347L669.872 492.406C669.517 492.194 669.092 492.126 668.688 492.219C668.284 492.311 667.931 492.555 667.703 492.901C667.475 493.247 667.389 493.668 667.463 494.076C667.537 494.483 667.766 494.847 668.102 495.09V495.09L683.861 505.483L684.015 505.574L684.717 506.037C684.981 506.211 685.29 506.302 685.606 506.301Z" fill="#09132D"/>
<path d="M668.797 486.781C669.095 486.781 669.386 486.699 669.64 486.543C669.893 486.388 670.098 486.165 670.233 485.9L698.815 429.265C698.966 428.967 699.02 428.63 698.97 428.3C698.841 427.438 685.773 341.624 685.116 316.595C684.634 298.041 691.393 289.063 697.875 286.843C698.275 286.702 698.603 286.408 698.787 286.027C698.972 285.645 698.998 285.206 698.861 284.805C698.723 284.404 698.433 284.074 698.054 283.885C697.674 283.697 697.235 283.666 696.833 283.799C689.269 286.373 681.383 296.381 681.898 316.679C682.541 340.89 694.618 421.092 695.706 428.274L667.381 484.445C667.257 484.689 667.198 484.96 667.208 485.233C667.219 485.507 667.299 485.773 667.44 486.006C667.582 486.24 667.781 486.434 668.018 486.57C668.256 486.705 668.524 486.778 668.797 486.781V486.781Z" fill="#09132D"/>
<path d="M717.529 435.875C717.919 435.877 718.297 435.738 718.592 435.482C718.887 435.227 719.08 434.873 719.133 434.487C719.187 434.1 719.098 433.707 718.883 433.381C718.669 433.056 718.343 432.819 717.967 432.715L697.824 427.006C697.413 426.889 696.973 426.94 696.6 427.148C696.227 427.356 695.952 427.703 695.835 428.113C695.718 428.524 695.769 428.964 695.976 429.337C696.184 429.71 696.531 429.985 696.942 430.102L717.085 435.823C717.23 435.861 717.379 435.878 717.529 435.875Z" fill="#09132D"/>
<path d="M736.005 460.472C742.577 452.749 747.232 445.985 747.908 441.809C748.468 438.314 747.979 429.735 746.62 418.28C739.185 418.28 731.582 425.449 728.73 435.823C725.769 446.584 729.001 457.081 736.005 460.472Z" fill="white"/>
<path d="M679.947 513.174C679.947 513.174 676.664 522.384 668.572 521.888C668.572 521.888 658.085 533.524 653.051 534.116C648.017 534.708 637.601 529.991 637.286 525.37C637.286 525.37 631.428 525.286 632.136 519.346C632.844 513.406 642.371 497.31 647.985 495.412C653.598 493.513 666.409 502.774 679.947 513.174Z" fill="white"/>
<path d="M652.188 535.77C652.539 535.771 652.889 535.751 653.238 535.712C658.227 535.139 666.905 526.058 669.267 523.529C677.881 523.529 681.318 514.14 681.466 513.728C681.58 513.407 681.59 513.059 681.494 512.733C681.398 512.407 681.201 512.12 680.932 511.913C663.737 498.707 653.315 491.923 647.508 493.893C641.187 496.029 631.415 512.556 630.578 519.153C630.295 521.399 630.771 523.252 631.988 524.649C633.038 525.793 634.436 526.559 635.966 526.831C636.587 528.363 637.613 529.697 638.934 530.692C642.423 533.582 648.21 535.77 652.188 535.77ZM668.578 520.292C668.352 520.292 668.129 520.34 667.923 520.432C667.716 520.524 667.532 520.658 667.381 520.826C663.486 525.151 656.096 532.147 652.871 532.52C649.787 532.867 644.116 530.827 640.981 528.227C639.693 527.159 638.953 526.104 638.889 525.26C638.86 524.859 638.681 524.482 638.388 524.206C638.094 523.929 637.708 523.773 637.305 523.767C637.305 523.767 635.412 523.703 634.395 522.525C634.084 522.103 633.866 521.62 633.755 521.108C633.644 520.595 633.643 520.065 633.751 519.552C634.485 513.695 643.878 498.514 648.519 496.943C653.624 495.225 668.475 506.436 677.958 513.715C676.902 515.896 673.986 520.633 668.656 520.305H668.559L668.578 520.292Z" fill="#09132D"/>
<path d="M638.773 524.482C639.036 524.482 639.295 524.417 639.527 524.294C639.76 524.17 639.958 523.992 640.105 523.774L649.266 510.259C649.491 509.905 649.569 509.478 649.483 509.068C649.398 508.658 649.156 508.298 648.809 508.063C648.462 507.829 648.037 507.738 647.625 507.812C647.213 507.885 646.845 508.117 646.601 508.457L637.44 521.972C637.277 522.214 637.182 522.496 637.166 522.787C637.151 523.079 637.215 523.369 637.352 523.627C637.489 523.885 637.694 524.101 637.944 524.251C638.194 524.402 638.481 524.482 638.773 524.482V524.482Z" fill="#09132D"/>
<path d="M651.97 222.66L651.564 237.932L650.875 264.061C642.082 270.207 633.533 270.85 625.286 264.659L626.497 252.521L628.325 234.135L651.97 222.66Z" fill="white"/>
<path d="M637.221 270.619C641.942 270.619 646.8 268.875 651.796 265.386C652.004 265.241 652.175 265.049 652.295 264.825C652.414 264.602 652.48 264.353 652.485 264.099L653.579 222.698C653.587 222.422 653.523 222.148 653.395 221.904C653.266 221.659 653.076 221.452 652.844 221.302C652.612 221.151 652.345 221.064 652.069 221.047C651.793 221.03 651.517 221.084 651.268 221.205L627.617 232.686C627.369 232.806 627.156 232.987 626.998 233.213C626.84 233.438 626.743 233.7 626.715 233.974L623.677 264.498C623.65 264.775 623.695 265.053 623.808 265.307C623.921 265.561 624.097 265.781 624.321 265.946C628.46 269.061 632.773 270.619 637.221 270.619ZM649.285 263.205C641.271 268.546 633.958 268.778 626.973 263.906L629.838 235.222L650.296 225.292L649.285 263.205Z" fill="#09132D"/>
<path d="M610.049 218.489C608.665 231.045 609.083 246.504 624.321 247.366C642.436 248.383 656.444 238.44 660.152 221.771C663.86 205.103 658.221 194.098 637.807 191.723C636.073 191.518 634.324 191.457 632.58 191.543C620.42 192.187 612.624 200.476 610.931 211.803C610.635 213.849 610.306 216.115 610.049 218.489Z" fill="white"/>
<path d="M626.831 249.04C633.004 249.112 639.104 247.702 644.618 244.927C644.806 244.83 644.972 244.697 645.109 244.535C645.245 244.374 645.348 244.187 645.412 243.985C645.476 243.784 645.499 243.572 645.481 243.361C645.463 243.151 645.404 242.946 645.307 242.758C645.21 242.571 645.076 242.404 644.915 242.268C644.753 242.132 644.566 242.029 644.365 241.965C644.163 241.901 643.951 241.877 643.741 241.895C643.53 241.913 643.325 241.973 643.137 242.07C637.355 244.942 630.909 246.213 624.469 245.751C620.342 245.519 617.285 244.161 615.122 241.6C610.403 236.02 610.911 225.839 611.703 218.657C611.954 216.301 612.276 214.094 612.579 212.034C614.214 200.952 621.932 193.718 632.722 193.145C633.148 193.123 633.549 192.932 633.835 192.615C634.121 192.298 634.27 191.88 634.247 191.453C634.225 191.026 634.034 190.626 633.717 190.34C633.399 190.054 632.981 189.905 632.554 189.928C620.143 190.571 611.272 198.873 609.379 211.558C609.083 213.56 608.736 215.896 608.484 218.303C607.628 226.064 607.126 237.146 612.643 243.672C615.373 246.89 619.28 248.673 624.269 248.956C625.119 249.012 625.973 249.04 626.831 249.04Z" fill="#09132D"/>
<path d="M664.697 226.019C662.485 228.104 660.096 229.992 657.557 231.663L648.596 230.325L648.075 223.638C648.075 223.638 642.519 222.19 642.165 218.155C642.159 218.06 642.159 217.966 642.165 217.871C642.165 216.584 642.165 210.792 644.843 202.374C644.843 202.374 630.082 205.444 622.576 204.652C619.879 204.369 617.008 202.722 614.439 200.662C609.289 196.595 606.276 186.163 608.645 180.068L608.69 179.952C612.25 171.013 615.714 178.472 615.714 178.472C615.714 178.472 618.694 171.296 623.49 171.76C628.286 172.223 629.793 179.759 629.793 179.759C639.233 179.582 648.623 181.18 657.474 184.47C674.977 191.099 667.812 202.593 667.812 202.593C667.812 202.593 680.121 209.717 664.697 226.019Z" fill="#09132D"/>
<path d="M650.727 229.777C651.461 222.647 657.738 217.221 664.89 217.91C666.407 218.058 667.882 218.495 669.235 219.197C677.372 223.374 670.806 243.009 650.013 236.94L650.727 229.777Z" fill="white"/>
<path d="M657.422 239.65C665.662 239.65 671.179 235.28 673.297 229.958C675.306 224.906 673.902 219.764 669.956 217.73C668.42 216.945 666.749 216.46 665.031 216.301C657.094 215.529 649.955 221.508 649.124 229.604C649.103 229.815 649.123 230.029 649.184 230.232C649.245 230.435 649.345 230.625 649.48 230.79C649.614 230.954 649.779 231.091 649.966 231.192C650.153 231.292 650.358 231.355 650.57 231.377C650.781 231.398 650.994 231.378 651.198 231.317C651.401 231.256 651.591 231.156 651.756 231.022C651.92 230.887 652.057 230.722 652.158 230.535C652.259 230.348 652.321 230.143 652.343 229.932C652.62 226.913 654.076 224.124 656.396 222.171C658.716 220.218 661.712 219.258 664.735 219.5C666.048 219.62 667.326 219.989 668.501 220.587C670.941 221.842 671.72 225.279 670.323 228.754C668.289 233.871 661.864 238.665 650.463 235.351C650.26 235.292 650.048 235.273 649.838 235.296C649.628 235.319 649.424 235.383 649.239 235.485C649.054 235.586 648.89 235.723 648.758 235.888C648.625 236.053 648.527 236.242 648.468 236.445C648.408 236.648 648.39 236.86 648.413 237.07C648.436 237.28 648.5 237.484 648.602 237.669C648.703 237.854 648.84 238.018 649.005 238.15C649.17 238.282 649.359 238.381 649.562 238.44C652.112 239.212 654.758 239.619 657.422 239.65V239.65Z" fill="#09132D"/>
<path d="M628.962 37.6457C629.389 37.6457 629.798 37.4762 630.1 37.1745C630.402 36.8727 630.571 36.4635 630.571 36.0368V28.5971C630.571 28.1704 630.402 27.7612 630.1 27.4594C629.798 27.1577 629.389 26.9882 628.962 26.9882C628.535 26.9882 628.126 27.1577 627.824 27.4594C627.522 27.7612 627.353 28.1704 627.353 28.5971V36.0496C627.356 36.4741 627.527 36.8801 627.829 37.179C628.13 37.478 628.537 37.6457 628.962 37.6457V37.6457Z" fill="#09132D"/>
<path d="M617.722 41.4428H625.177C625.604 41.4428 626.013 41.2733 626.315 40.9715C626.617 40.6698 626.786 40.2606 626.786 39.8339C626.786 39.4071 626.617 38.9979 626.315 38.6962C626.013 38.3944 625.604 38.2249 625.177 38.2249H617.722C617.295 38.2249 616.886 38.3944 616.584 38.6962C616.282 38.9979 616.113 39.4071 616.113 39.8339C616.113 40.2606 616.282 40.6698 616.584 40.9715C616.886 41.2733 617.295 41.4428 617.722 41.4428Z" fill="#09132D"/>
<path d="M628.962 52.6795C629.389 52.6795 629.798 52.51 630.1 52.2083C630.402 51.9066 630.571 51.4973 630.571 51.0706V43.6181C630.571 43.1913 630.402 42.7821 630.1 42.4804C629.798 42.1786 629.389 42.0091 628.962 42.0091C628.535 42.0091 628.126 42.1786 627.824 42.4804C627.522 42.7821 627.353 43.1913 627.353 43.6181V51.0706C627.353 51.2819 627.394 51.4911 627.475 51.6863C627.556 51.8815 627.675 52.0589 627.824 52.2083C627.973 52.3577 628.151 52.4762 628.346 52.5571C628.541 52.6379 628.751 52.6795 628.962 52.6795V52.6795Z" fill="#09132D"/>
<path d="M632.754 41.4428H640.202C640.629 41.4428 641.038 41.2733 641.34 40.9715C641.642 40.6698 641.811 40.2606 641.811 39.8339C641.811 39.4071 641.642 38.9979 641.34 38.6962C641.038 38.3944 640.629 38.2249 640.202 38.2249H632.754C632.327 38.2249 631.918 38.3944 631.616 38.6962C631.314 38.9979 631.144 39.4071 631.144 39.8339C631.144 40.2606 631.314 40.6698 631.616 40.9715C631.918 41.2733 632.327 41.4428 632.754 41.4428V41.4428Z" fill="#09132D"/>
<path d="M151.821 414.09C152.248 414.09 152.657 413.92 152.959 413.619C153.261 413.317 153.43 412.908 153.43 412.481V407.699C153.43 407.273 153.261 406.863 152.959 406.562C152.657 406.26 152.248 406.09 151.821 406.09C151.394 406.09 150.985 406.26 150.683 406.562C150.381 406.863 150.212 407.273 150.212 407.699V412.462C150.209 412.675 150.249 412.886 150.329 413.083C150.408 413.281 150.526 413.46 150.676 413.612C150.826 413.763 151.004 413.884 151.201 413.966C151.397 414.048 151.608 414.09 151.821 414.09V414.09Z" fill="#09132D"/>
<path d="M144.662 416.51H149.426C149.853 416.51 150.262 416.34 150.564 416.039C150.866 415.737 151.036 415.328 151.036 414.901C151.036 414.474 150.866 414.065 150.564 413.763C150.262 413.461 149.853 413.292 149.426 413.292H144.662C144.236 413.292 143.826 413.461 143.524 413.763C143.223 414.065 143.053 414.474 143.053 414.901C143.053 415.328 143.223 415.737 143.524 416.039C143.826 416.34 144.236 416.51 144.662 416.51Z" fill="#09132D"/>
<path d="M151.821 423.692C152.248 423.692 152.657 423.523 152.959 423.221C153.261 422.919 153.43 422.51 153.43 422.083V417.353C153.43 416.926 153.261 416.517 152.959 416.215C152.657 415.913 152.248 415.744 151.821 415.744C151.394 415.744 150.985 415.913 150.683 416.215C150.381 416.517 150.212 416.926 150.212 417.353V422.115C150.22 422.536 150.393 422.937 150.694 423.232C150.995 423.527 151.4 423.692 151.821 423.692Z" fill="#09132D"/>
<path d="M154.248 416.51H159.012C159.439 416.51 159.848 416.34 160.15 416.039C160.451 415.737 160.621 415.328 160.621 414.901C160.621 414.474 160.451 414.065 160.15 413.763C159.848 413.461 159.439 413.292 159.012 413.292H154.248C153.821 413.292 153.412 413.461 153.11 413.763C152.808 414.065 152.639 414.474 152.639 414.901C152.639 415.328 152.808 415.737 153.11 416.039C153.412 416.34 153.821 416.51 154.248 416.51Z" fill="#09132D"/>
<path d="M521.398 344.224C521.825 344.224 522.234 344.054 522.536 343.753C522.838 343.451 523.007 343.042 523.007 342.615V335.162C523.007 334.736 522.838 334.326 522.536 334.025C522.234 333.723 521.825 333.553 521.398 333.553C520.971 333.553 520.562 333.723 520.26 334.025C519.958 334.326 519.788 334.736 519.788 335.162V342.615C519.788 343.042 519.958 343.451 520.26 343.753C520.562 344.054 520.971 344.224 521.398 344.224V344.224Z" fill="#09132D"/>
<path d="M510.158 348.008H517.613C518.039 348.008 518.449 347.839 518.751 347.537C519.052 347.235 519.222 346.826 519.222 346.399C519.222 345.972 519.052 345.563 518.751 345.261C518.449 344.96 518.039 344.79 517.613 344.79H510.158C509.731 344.79 509.322 344.96 509.02 345.261C508.718 345.563 508.549 345.972 508.549 346.399C508.549 346.826 508.718 347.235 509.02 347.537C509.322 347.839 509.731 348.008 510.158 348.008Z" fill="#09132D"/>
<path d="M521.398 359.245C521.825 359.245 522.234 359.075 522.536 358.774C522.838 358.472 523.007 358.063 523.007 357.636V350.183C523.007 349.757 522.838 349.347 522.536 349.046C522.234 348.744 521.825 348.574 521.398 348.574C520.971 348.574 520.562 348.744 520.26 349.046C519.958 349.347 519.788 349.757 519.788 350.183V357.636C519.788 358.063 519.958 358.472 520.26 358.774C520.562 359.075 520.971 359.245 521.398 359.245Z" fill="#09132D"/>
<path d="M525.19 348.008H532.638C533.065 348.008 533.474 347.839 533.776 347.537C534.078 347.235 534.247 346.826 534.247 346.399C534.247 345.972 534.078 345.563 533.776 345.261C533.474 344.96 533.065 344.79 532.638 344.79H525.183C524.972 344.791 524.763 344.833 524.567 344.914C524.372 344.995 524.195 345.114 524.046 345.264C523.897 345.413 523.779 345.591 523.698 345.786C523.618 345.982 523.576 346.191 523.577 346.402C523.577 346.614 523.619 346.823 523.701 347.018C523.782 347.213 523.901 347.39 524.051 347.539C524.2 347.688 524.378 347.806 524.573 347.887C524.769 347.967 524.978 348.008 525.19 348.008V348.008Z" fill="#09132D"/>
<path d="M677.848 141.061C674.787 141.061 672.306 138.58 672.306 135.52C672.306 132.46 674.787 129.979 677.848 129.979C680.91 129.979 683.391 132.46 683.391 135.52C683.391 138.58 680.91 141.061 677.848 141.061Z" fill="#87BFC1"/>
<path d="M59.0824 538.782C53.0988 538.782 48.248 533.933 48.248 527.951C48.248 521.969 53.0988 517.119 59.0824 517.119C65.066 517.119 69.9167 521.969 69.9167 527.951C69.9167 533.933 65.066 538.782 59.0824 538.782Z" fill="#00E693"/>
<path d="M426.676 555.837C421.695 555.837 417.658 551.8 417.658 546.82C417.658 541.841 421.695 537.804 426.676 537.804C431.658 537.804 435.695 541.841 435.695 546.82C435.695 551.8 431.658 555.837 426.676 555.837Z" fill="#00E693"/>
</svg>
