<svg xmlns="http://www.w3.org/2000/svg" width="25" height="24" fill="none" viewBox="0 0 25 24">
  <path fill="#000" d="M.78 0h24v24h-24z"/>
  <path fill="#fff" d="M20.186 15.899c-.8 0-1.38-.193-1.74-.58-.347-.4-.52-.86-.52-1.38v-.58c0-.52.18-.98.54-1.38.36-.4.933-.6 1.72-.6.786 0 1.36.2 1.72.6.36.4.54.86.54 1.38v.58c0 .52-.18.98-.54 1.38-.36.387-.934.58-1.72.58Zm-7.129 0c-.8 0-1.38-.193-1.74-.58-.347-.4-.52-.86-.52-1.38v-.58c0-.52.18-.98.54-1.38.36-.4.933-.6 1.72-.6.787 0 1.36.2 1.72.6.36.4.54.86.54 1.38v.58c0 .52-.18.98-.54 1.38-.36.387-.933.58-1.72.58ZM4 4h4.66v2.2h-2.2v11.58h2.2V20H4V4Z"/>
</svg>