<svg width="396" height="396" viewBox="0 0 396 396" fill="none" xmlns="http://www.w3.org/2000/svg">
<path opacity="0.5" d="M180.674 29.6331C191.395 23.4431 204.605 23.4431 215.326 29.6331L335.147 98.8117C345.868 105.002 352.473 116.441 352.473 128.821V267.179C352.473 279.559 345.868 290.998 335.147 297.188L215.326 366.367C204.605 372.557 191.395 372.557 180.674 366.367L60.8531 297.188C50.1316 290.998 43.527 279.559 43.527 267.179V128.821C43.527 116.441 50.1316 105.002 60.8531 98.8117L180.674 29.6331Z" stroke="url(#paint0_linear)" stroke-width="34" stroke-linecap="round" stroke-linejoin="round"/>
<path d="M181.043 77.7898C191.536 71.7319 204.464 71.7319 214.957 77.7898L293.627 123.21C304.12 129.268 310.583 140.464 310.583 152.58V243.42C310.583 255.536 304.12 266.732 293.627 272.79L214.957 318.21C204.464 324.268 191.536 324.268 181.043 318.21L102.373 272.79C91.8805 266.732 85.4167 255.536 85.4167 243.42V152.58C85.4167 140.464 91.8805 129.268 102.373 123.21L181.043 77.7898Z" fill="url(#paint1_linear)"/>
<defs>
<linearGradient id="paint0_linear" x1="241.043" y1="103.304" x2="198" y2="301.304" gradientUnits="userSpaceOnUse">
<stop stop-color="#37ECBA"/>
<stop offset="0.540249" stop-color="#17E9D0"/>
<stop offset="1" stop-color="#00DCEA"/>
</linearGradient>
<linearGradient id="paint1_linear" x1="226.261" y1="135.826" x2="198" y2="265.826" gradientUnits="userSpaceOnUse">
<stop stop-color="#37ECBA"/>
<stop offset="0.540249" stop-color="#17E9D0"/>
<stop offset="1" stop-color="#00DCEA"/>
</linearGradient>
</defs>
</svg>
