<svg width="684" height="121" viewBox="0 0 684 121" fill="none" xmlns="http://www.w3.org/2000/svg">
<path fill-rule="evenodd" clip-rule="evenodd" d="M57.9925 117.085C54.2843 119.226 49.7157 119.226 46.0075 117.085L5.99246 93.982C2.28431 91.8411 0 87.8845 0 83.6027V37.3973C0 33.1155 2.28431 29.1589 5.99246 27.018L46.0075 3.91532C49.7157 1.77442 54.2843 1.77442 57.9925 3.91532L98.0076 27.018C101.716 29.1589 104 33.1155 104 37.3973V83.6027C104 87.8845 101.716 91.8411 98.0076 93.982L57.9925 117.085ZM57.9925 102.223C54.2843 104.364 49.7157 104.364 46.0075 102.223L18.8627 86.5513C15.1546 84.4104 12.8703 80.4539 12.8703 76.1721V44.8279C12.8703 40.5461 15.1546 36.5896 18.8627 34.4487L46.0075 18.7766C49.7157 16.6357 54.2843 16.6357 57.9925 18.7766L85.1373 34.4487C88.8454 36.5896 91.1297 40.5461 91.1297 44.8279V76.1721C91.1297 80.4539 88.8454 84.4104 85.1373 86.5513L57.9925 102.223Z" fill="#09132D"/>
<path d="M46.0075 90.2385C49.7157 92.3794 54.2843 92.3794 57.9925 90.2385L74.758 80.5589C78.4662 78.418 80.7505 74.4614 80.7505 70.1796V50.8204C80.7505 46.5386 78.4662 42.582 74.758 40.4411L57.9925 30.7615C54.2843 28.6206 49.7157 28.6206 46.0075 30.7615L29.242 40.4411C25.5338 42.582 23.2495 46.5386 23.2495 50.8204V70.1796C23.2495 74.4614 25.5338 78.418 29.242 80.5589L46.0075 90.2385Z" fill="#09132D"/>
<path d="M171.584 93.768C165.824 93.768 161.216 93.064 157.76 91.656C154.368 90.248 151.904 87.912 150.368 84.648C148.832 81.384 148.064 76.968 148.064 71.4V52.68H140.384V40.008H148.16V26.184H164.288V40.008H178.784V52.68H164.192V71.88C164.192 76.744 166.624 79.176 171.488 79.176H178.784V93.768H171.584ZM207.161 94.92C200.953 94.92 195.641 93.704 191.225 91.272C186.809 88.776 183.449 85.48 181.145 81.384C178.841 77.288 177.689 72.776 177.689 67.848V65.544C177.689 60.36 178.873 55.72 181.241 51.624C183.673 47.464 187.097 44.168 191.513 41.736C195.929 39.304 201.145 38.088 207.161 38.088C213.177 38.088 218.393 39.304 222.809 41.736C227.225 44.168 230.617 47.464 232.985 51.624C235.417 55.72 236.633 60.36 236.633 65.544V67.848C236.633 72.776 235.481 77.288 233.177 81.384C230.873 85.48 227.513 88.776 223.097 91.272C218.745 93.704 213.433 94.92 207.161 94.92ZM207.161 80.328C211.129 80.328 214.105 79.048 216.089 76.488C218.137 73.928 219.161 70.664 219.161 66.696C219.161 62.6 218.105 59.24 215.993 56.616C213.945 53.992 211.001 52.68 207.161 52.68C203.321 52.68 200.345 53.992 198.233 56.616C196.185 59.24 195.161 62.6 195.161 66.696C195.161 70.664 196.153 73.928 198.137 76.488C200.185 79.048 203.193 80.328 207.161 80.328ZM260.79 94.728C255.862 94.728 251.51 93.576 247.734 91.272C244.022 88.968 241.11 85.8 238.998 81.768C236.95 77.672 235.926 73.064 235.926 67.944V65.64C235.926 60.456 236.918 55.816 238.902 51.72C240.886 47.624 243.67 44.392 247.254 42.024C250.902 39.656 255.222 38.472 260.214 38.472C267.702 38.472 273.238 41.288 276.822 46.92V22.92H294.295V93H280.471V81.768C278.871 85.864 276.375 89.064 272.983 91.368C269.655 93.608 265.591 94.728 260.79 94.728ZM265.494 80.328C268.694 80.328 271.447 79.272 273.751 77.16C276.055 74.984 277.207 71.912 277.207 67.944V64.68C277.207 62.12 276.63 59.976 275.478 58.248C274.391 56.52 272.951 55.208 271.159 54.312C269.431 53.352 267.542 52.872 265.494 52.872C261.974 52.872 259.062 54.152 256.759 56.712C254.518 59.272 253.398 62.632 253.398 66.792C253.398 70.888 254.518 74.184 256.759 76.68C259.062 79.112 261.974 80.328 265.494 80.328ZM326.167 94.92C319.959 94.92 314.647 93.704 310.231 91.272C305.815 88.776 302.455 85.48 300.151 81.384C297.847 77.288 296.695 72.776 296.695 67.848V65.544C296.695 60.36 297.879 55.72 300.247 51.624C302.679 47.464 306.103 44.168 310.519 41.736C314.935 39.304 320.151 38.088 326.167 38.088C332.183 38.088 337.399 39.304 341.815 41.736C346.231 44.168 349.623 47.464 351.991 51.624C354.423 55.72 355.639 60.36 355.639 65.544V67.848C355.639 72.776 354.487 77.288 352.183 81.384C349.879 85.48 346.519 88.776 342.103 91.272C337.751 93.704 332.439 94.92 326.167 94.92ZM326.167 80.328C330.135 80.328 333.111 79.048 335.095 76.488C337.143 73.928 338.167 70.664 338.167 66.696C338.167 62.6 337.111 59.24 334.999 56.616C332.951 53.992 330.007 52.68 326.167 52.68C322.327 52.68 319.351 53.992 317.239 56.616C315.191 59.24 314.167 62.6 314.167 66.696C314.167 70.664 315.159 73.928 317.143 76.488C319.191 79.048 322.199 80.328 326.167 80.328ZM358.005 93V40.008H371.829V53.832C373.813 43.464 379.573 38.28 389.109 38.28H389.877C397.877 38.28 403.221 41.96 405.909 49.32C408.597 41.96 413.941 38.28 421.941 38.28H422.709C428.597 38.28 433.141 40.328 436.341 44.424C439.541 48.52 441.141 54.664 441.141 62.856V93H423.669V62.376C423.669 59.944 422.997 57.928 421.653 56.328C420.373 54.664 418.517 53.832 416.085 53.832C413.653 53.832 411.733 54.664 410.325 56.328C408.981 57.928 408.309 60.008 408.309 62.568V93H390.837V62.376C390.837 59.944 390.165 57.928 388.821 56.328C387.541 54.664 385.685 53.832 383.253 53.832C380.821 53.832 378.901 54.664 377.493 56.328C376.149 57.928 375.477 60.008 375.477 62.568V93H358.005ZM455.28 35.784C452.144 35.784 449.808 34.984 448.272 33.384C446.8 31.72 446.064 29.608 446.064 27.048C446.064 24.488 446.8 22.408 448.272 20.808C449.808 19.144 452.144 18.312 455.28 18.312C458.48 18.312 460.816 19.144 462.288 20.808C463.76 22.408 464.496 24.488 464.496 27.048C464.496 29.608 463.76 31.72 462.288 33.384C460.816 34.984 458.48 35.784 455.28 35.784ZM448.176 93V52.68H441.456V40.008H465.648V93H448.176ZM471.292 93V40.008H485.116V58.728C485.692 52.648 487.484 47.88 490.492 44.424C493.564 40.968 497.724 39.24 502.972 39.24H505.084V54.216H501.052C497.148 54.216 494.108 55.272 491.932 57.384C489.82 59.496 488.764 62.536 488.764 66.504V93H471.292ZM496.753 93V73.992H515.569V93H496.753ZM539.434 94.728C534.506 94.728 530.154 93.576 526.378 91.272C522.666 88.968 519.754 85.8 517.642 81.768C515.594 77.672 514.57 73.064 514.57 67.944V65.64C514.57 60.456 515.562 55.816 517.546 51.72C519.53 47.624 522.314 44.392 525.898 42.024C529.546 39.656 533.866 38.472 538.858 38.472C546.346 38.472 551.882 41.288 555.466 46.92V22.92H572.938V93H559.114V81.768C557.514 85.864 555.018 89.064 551.626 91.368C548.298 93.608 544.234 94.728 539.434 94.728ZM544.138 80.328C547.338 80.328 550.09 79.272 552.394 77.16C554.698 74.984 555.85 71.912 555.85 67.944V64.68C555.85 62.12 555.274 59.976 554.122 58.248C553.034 56.52 551.594 55.208 549.802 54.312C548.074 53.352 546.186 52.872 544.138 52.872C540.618 52.872 537.706 54.152 535.402 56.712C533.162 59.272 532.042 62.632 532.042 66.792C532.042 70.888 533.162 74.184 535.402 76.68C537.706 79.112 540.618 80.328 544.138 80.328ZM603.275 94.92C598.795 94.92 594.827 94.152 591.371 92.616C587.915 91.08 585.003 89 582.635 86.376C580.267 83.752 578.443 80.808 577.163 77.544C575.947 74.28 575.339 70.92 575.339 67.464V65.544C575.339 61.96 575.947 58.536 577.163 55.272C578.443 51.944 580.235 49 582.539 46.44C584.907 43.88 587.787 41.864 591.179 40.392C594.571 38.856 598.411 38.088 602.699 38.088C608.395 38.088 613.227 39.368 617.195 41.928C621.163 44.488 624.203 47.88 626.315 52.104C628.427 56.264 629.483 60.808 629.483 65.736V71.304H591.851C592.427 74.312 593.643 76.68 595.499 78.408C597.355 80.072 599.947 80.904 603.275 80.904C608.139 80.904 611.243 79.368 612.587 76.296H628.523C627.755 79.88 626.219 83.08 623.915 85.896C621.675 88.712 618.795 90.92 615.275 92.52C611.819 94.12 607.819 94.92 603.275 94.92ZM602.699 52.104C599.819 52.104 597.419 52.936 595.499 54.6C593.643 56.2 592.427 58.632 591.851 61.896H613.067C611.979 55.368 608.523 52.104 602.699 52.104ZM640.914 93L625.746 40.008H643.602L653.874 78.408H655.89L664.626 40.008H681.33L668.274 93H640.914Z" fill="#09132D"/>
</svg>
